<?xml version="1.0" encoding="UTF-8" standalone="no"?><svg xmlns="http://www.w3.org/2000/svg" xmlns:xlink="http://www.w3.org/1999/xlink" contentScriptType="application/ecmascript" contentStyleType="text/css" height="639px" preserveAspectRatio="none" style="width:1223px;height:639px;background:#FFFFFF;" version="1.1" viewBox="0 0 1223 639" width="1223px" zoomAndPan="magnify"><defs/><g><!--MD5=[3915787db80ab162e3259f8f86339844]
class Structure--><rect codeLine="3" fill="#FEFECE" height="137.6328" id="Structure" rx="3.5" ry="3.5" style="stroke:#A80036;stroke-width:1.5;" width="157" x="447.5" y="142"/><ellipse cx="492.25" cy="158" fill="#ADD1B2" rx="11" ry="11" style="stroke:#A80036;stroke-width:1.0;"/><path d="M495.2188,163.6406 Q494.6406,163.9375 494,164.0781 Q493.3594,164.2344 492.6563,164.2344 Q490.1563,164.2344 488.8281,162.5938 Q487.5156,160.9375 487.5156,157.8125 Q487.5156,154.6875 488.8281,153.0313 Q490.1563,151.375 492.6563,151.375 Q493.3594,151.375 494,151.5313 Q494.6563,151.6875 495.2188,151.9844 L495.2188,154.7031 Q494.5938,154.125 494,153.8594 Q493.4063,153.5781 492.7813,153.5781 Q491.4375,153.5781 490.75,154.6563 Q490.0625,155.7188 490.0625,157.8125 Q490.0625,159.9063 490.75,160.9844 Q491.4375,162.0469 492.7813,162.0469 Q493.4063,162.0469 494,161.7813 Q494.5938,161.5 495.2188,160.9219 L495.2188,163.6406 Z " fill="#000000"/><text fill="#000000" font-family="sans-serif" font-size="12" lengthAdjust="spacing" textLength="59" x="512.75" y="162.1543">Structure</text><line style="stroke:#A80036;stroke-width:1.5;" x1="448.5" x2="603.5" y1="174" y2="174"/><text fill="#000000" font-family="sans-serif" font-size="11" lengthAdjust="spacing" textLength="45" x="453.5" y="188.2104">position</text><text fill="#000000" font-family="sans-serif" font-size="11" lengthAdjust="spacing" textLength="73" x="453.5" y="201.0151">infectionRate</text><text fill="#000000" font-family="sans-serif" font-size="11" lengthAdjust="spacing" textLength="46" x="453.5" y="213.8198">capacity</text><text fill="#000000" font-family="sans-serif" font-size="11" lengthAdjust="spacing" textLength="141" x="453.5" y="226.6245">/currentNumberOfPeople</text><text fill="#000000" font-family="sans-serif" font-size="11" lengthAdjust="spacing" textLength="40" x="453.5" y="239.4292">isOpen</text><text fill="#000000" font-family="sans-serif" font-size="11" lengthAdjust="spacing" textLength="83" x="453.5" y="252.2339">visibilityRadius</text><text fill="#000000" font-family="sans-serif" font-size="11" lengthAdjust="spacing" textLength="145" x="453.5" y="265.0386">averagePermanenceTime</text><line style="stroke:#A80036;stroke-width:1.5;" x1="448.5" x2="603.5" y1="271.6328" y2="271.6328"/><!--MD5=[5005bba8c6d1dda988b0bcc8eba409f6]
class House--><rect codeLine="13" fill="#FEFECE" height="48" id="House" rx="3.5" ry="3.5" style="stroke:#A80036;stroke-width:1.5;" width="72" x="306" y="572"/><ellipse cx="321" cy="588" fill="#ADD1B2" rx="11" ry="11" style="stroke:#A80036;stroke-width:1.0;"/><path d="M323.9688,593.6406 Q323.3906,593.9375 322.75,594.0781 Q322.1094,594.2344 321.4063,594.2344 Q318.9063,594.2344 317.5781,592.5938 Q316.2656,590.9375 316.2656,587.8125 Q316.2656,584.6875 317.5781,583.0313 Q318.9063,581.375 321.4063,581.375 Q322.1094,581.375 322.75,581.5313 Q323.4063,581.6875 323.9688,581.9844 L323.9688,584.7031 Q323.3438,584.125 322.75,583.8594 Q322.1563,583.5781 321.5313,583.5781 Q320.1875,583.5781 319.5,584.6563 Q318.8125,585.7188 318.8125,587.8125 Q318.8125,589.9063 319.5,590.9844 Q320.1875,592.0469 321.5313,592.0469 Q322.1563,592.0469 322.75,591.7813 Q323.3438,591.5 323.9688,590.9219 L323.9688,593.6406 Z " fill="#000000"/><text fill="#000000" font-family="sans-serif" font-size="12" lengthAdjust="spacing" textLength="40" x="335" y="592.1543">House</text><line style="stroke:#A80036;stroke-width:1.5;" x1="307" x2="377" y1="604" y2="604"/><line style="stroke:#A80036;stroke-width:1.5;" x1="307" x2="377" y1="612" y2="612"/><!--MD5=[4273bc46a385d6c4791fabb0cd064a50]
class Hospital--><rect codeLine="15" fill="#FEFECE" height="60.8047" id="Hospital" rx="3.5" ry="3.5" style="stroke:#A80036;stroke-width:1.5;" width="107" x="655.5" y="389"/><ellipse cx="681.3" cy="405" fill="#ADD1B2" rx="11" ry="11" style="stroke:#A80036;stroke-width:1.0;"/><path d="M684.2688,410.6406 Q683.6906,410.9375 683.05,411.0781 Q682.4094,411.2344 681.7063,411.2344 Q679.2063,411.2344 677.8781,409.5938 Q676.5656,407.9375 676.5656,404.8125 Q676.5656,401.6875 677.8781,400.0313 Q679.2063,398.375 681.7063,398.375 Q682.4094,398.375 683.05,398.5313 Q683.7063,398.6875 684.2688,398.9844 L684.2688,401.7031 Q683.6438,401.125 683.05,400.8594 Q682.4563,400.5781 681.8313,400.5781 Q680.4875,400.5781 679.8,401.6563 Q679.1125,402.7188 679.1125,404.8125 Q679.1125,406.9063 679.8,407.9844 Q680.4875,409.0469 681.8313,409.0469 Q682.4563,409.0469 683.05,408.7813 Q683.6438,408.5 684.2688,407.9219 L684.2688,410.6406 Z " fill="#000000"/><text fill="#000000" font-family="sans-serif" font-size="12" lengthAdjust="spacing" textLength="51" x="697.7" y="409.1543">Hospital</text><line style="stroke:#A80036;stroke-width:1.5;" x1="656.5" x2="761.5" y1="421" y2="421"/><text fill="#000000" font-family="sans-serif" font-size="11" lengthAdjust="spacing" textLength="95" x="661.5" y="435.2104">treatmentQuality</text><line style="stroke:#A80036;stroke-width:1.5;" x1="656.5" x2="761.5" y1="441.8047" y2="441.8047"/><!--MD5=[7724d177971bed1f2b7f417e509df8bf]
class GenericBuilding--><rect codeLine="19" fill="#FEFECE" height="48" id="GenericBuilding" rx="3.5" ry="3.5" style="stroke:#A80036;stroke-width:1.5;" width="129" x="491.5" y="395.5"/><ellipse cx="506.5" cy="411.5" fill="#ADD1B2" rx="11" ry="11" style="stroke:#A80036;stroke-width:1.0;"/><path d="M509.4688,417.1406 Q508.8906,417.4375 508.25,417.5781 Q507.6094,417.7344 506.9063,417.7344 Q504.4063,417.7344 503.0781,416.0938 Q501.7656,414.4375 501.7656,411.3125 Q501.7656,408.1875 503.0781,406.5313 Q504.4063,404.875 506.9063,404.875 Q507.6094,404.875 508.25,405.0313 Q508.9063,405.1875 509.4688,405.4844 L509.4688,408.2031 Q508.8438,407.625 508.25,407.3594 Q507.6563,407.0781 507.0313,407.0781 Q505.6875,407.0781 505,408.1563 Q504.3125,409.2188 504.3125,411.3125 Q504.3125,413.4063 505,414.4844 Q505.6875,415.5469 507.0313,415.5469 Q507.6563,415.5469 508.25,415.2813 Q508.8438,415 509.4688,414.4219 L509.4688,417.1406 Z " fill="#000000"/><text fill="#000000" font-family="sans-serif" font-size="12" lengthAdjust="spacing" textLength="97" x="520.5" y="415.6543">GenericBuilding</text><line style="stroke:#A80036;stroke-width:1.5;" x1="492.5" x2="619.5" y1="427.5" y2="427.5"/><line style="stroke:#A80036;stroke-width:1.5;" x1="492.5" x2="619.5" y1="435.5" y2="435.5"/><!--MD5=[b9ea5c7bb0ec3fa381b232ff9a800bfc]
class EntranceStrategy--><rect codeLine="21" fill="#FEFECE" height="48" id="EntranceStrategy" rx="3.5" ry="3.5" style="stroke:#A80036;stroke-width:1.5;" width="142" x="859" y="395.5"/><ellipse cx="874" cy="411.5" fill="#ADD1B2" rx="11" ry="11" style="stroke:#A80036;stroke-width:1.0;"/><path d="M876.9688,417.1406 Q876.3906,417.4375 875.75,417.5781 Q875.1094,417.7344 874.4063,417.7344 Q871.9063,417.7344 870.5781,416.0938 Q869.2656,414.4375 869.2656,411.3125 Q869.2656,408.1875 870.5781,406.5313 Q871.9063,404.875 874.4063,404.875 Q875.1094,404.875 875.75,405.0313 Q876.4063,405.1875 876.9688,405.4844 L876.9688,408.2031 Q876.3438,407.625 875.75,407.3594 Q875.1563,407.0781 874.5313,407.0781 Q873.1875,407.0781 872.5,408.1563 Q871.8125,409.2188 871.8125,411.3125 Q871.8125,413.4063 872.5,414.4844 Q873.1875,415.5469 874.5313,415.5469 Q875.1563,415.5469 875.75,415.2813 Q876.3438,415 876.9688,414.4219 L876.9688,417.1406 Z " fill="#000000"/><text fill="#000000" font-family="sans-serif" font-size="12" lengthAdjust="spacing" textLength="110" x="888" y="415.6543">EntranceStrategy</text><line style="stroke:#A80036;stroke-width:1.5;" x1="860" x2="1000" y1="427.5" y2="427.5"/><line style="stroke:#A80036;stroke-width:1.5;" x1="860" x2="1000" y1="435.5" y2="435.5"/><!--MD5=[5ceacbb530e253ddf1f802b305c1232e]
class FilterBasedStrategy--><rect codeLine="23" fill="#FEFECE" height="48" id="FilterBasedStrategy" rx="3.5" ry="3.5" style="stroke:#A80036;stroke-width:1.5;" width="155" x="913.5" y="572"/><ellipse cx="928.5" cy="588" fill="#ADD1B2" rx="11" ry="11" style="stroke:#A80036;stroke-width:1.0;"/><path d="M931.4688,593.6406 Q930.8906,593.9375 930.25,594.0781 Q929.6094,594.2344 928.9063,594.2344 Q926.4063,594.2344 925.0781,592.5938 Q923.7656,590.9375 923.7656,587.8125 Q923.7656,584.6875 925.0781,583.0313 Q926.4063,581.375 928.9063,581.375 Q929.6094,581.375 930.25,581.5313 Q930.9063,581.6875 931.4688,581.9844 L931.4688,584.7031 Q930.8438,584.125 930.25,583.8594 Q929.6563,583.5781 929.0313,583.5781 Q927.6875,583.5781 927,584.6563 Q926.3125,585.7188 926.3125,587.8125 Q926.3125,589.9063 927,590.9844 Q927.6875,592.0469 929.0313,592.0469 Q929.6563,592.0469 930.25,591.7813 Q930.8438,591.5 931.4688,590.9219 L931.4688,593.6406 Z " fill="#000000"/><text fill="#000000" font-family="sans-serif" font-size="12" lengthAdjust="spacing" textLength="123" x="942.5" y="592.1543">FilterBasedStrategy</text><line style="stroke:#A80036;stroke-width:1.5;" x1="914.5" x2="1067.5" y1="604" y2="604"/><line style="stroke:#A80036;stroke-width:1.5;" x1="914.5" x2="1067.5" y1="612" y2="612"/><!--MD5=[c2a9cbdddb910365c8f98da6ce6a0c54]
class FreeStrategy--><rect codeLine="25" fill="#FEFECE" height="48" id="FreeStrategy" rx="3.5" ry="3.5" style="stroke:#A80036;stroke-width:1.5;" width="113" x="1103.5" y="572"/><ellipse cx="1118.5" cy="588" fill="#ADD1B2" rx="11" ry="11" style="stroke:#A80036;stroke-width:1.0;"/><path d="M1121.4688,593.6406 Q1120.8906,593.9375 1120.25,594.0781 Q1119.6094,594.2344 1118.9063,594.2344 Q1116.4063,594.2344 1115.0781,592.5938 Q1113.7656,590.9375 1113.7656,587.8125 Q1113.7656,584.6875 1115.0781,583.0313 Q1116.4063,581.375 1118.9063,581.375 Q1119.6094,581.375 1120.25,581.5313 Q1120.9063,581.6875 1121.4688,581.9844 L1121.4688,584.7031 Q1120.8438,584.125 1120.25,583.8594 Q1119.6563,583.5781 1119.0313,583.5781 Q1117.6875,583.5781 1117,584.6563 Q1116.3125,585.7188 1116.3125,587.8125 Q1116.3125,589.9063 1117,590.9844 Q1117.6875,592.0469 1119.0313,592.0469 Q1119.6563,592.0469 1120.25,591.7813 Q1120.8438,591.5 1121.4688,590.9219 L1121.4688,593.6406 Z " fill="#000000"/><text fill="#000000" font-family="sans-serif" font-size="12" lengthAdjust="spacing" textLength="81" x="1132.5" y="592.1543">FreeStrategy</text><line style="stroke:#A80036;stroke-width:1.5;" x1="1104.5" x2="1215.5" y1="604" y2="604"/><line style="stroke:#A80036;stroke-width:1.5;" x1="1104.5" x2="1215.5" y1="612" y2="612"/><!--MD5=[017dc6f17d9f69c596e8af9c3b87f9e1]
class ProbabilityBasedStrategy--><rect codeLine="27" fill="#FEFECE" height="48" id="ProbabilityBasedStrategy" rx="3.5" ry="3.5" style="stroke:#A80036;stroke-width:1.5;" width="189" x="689.5" y="572"/><ellipse cx="704.5" cy="588" fill="#ADD1B2" rx="11" ry="11" style="stroke:#A80036;stroke-width:1.0;"/><path d="M707.4688,593.6406 Q706.8906,593.9375 706.25,594.0781 Q705.6094,594.2344 704.9063,594.2344 Q702.4063,594.2344 701.0781,592.5938 Q699.7656,590.9375 699.7656,587.8125 Q699.7656,584.6875 701.0781,583.0313 Q702.4063,581.375 704.9063,581.375 Q705.6094,581.375 706.25,581.5313 Q706.9063,581.6875 707.4688,581.9844 L707.4688,584.7031 Q706.8438,584.125 706.25,583.8594 Q705.6563,583.5781 705.0313,583.5781 Q703.6875,583.5781 703,584.6563 Q702.3125,585.7188 702.3125,587.8125 Q702.3125,589.9063 703,590.9844 Q703.6875,592.0469 705.0313,592.0469 Q705.6563,592.0469 706.25,591.7813 Q706.8438,591.5 707.4688,590.9219 L707.4688,593.6406 Z " fill="#000000"/><text fill="#000000" font-family="sans-serif" font-size="12" lengthAdjust="spacing" textLength="157" x="718.5" y="592.1543">ProbabilityBasedStrategy</text><line style="stroke:#A80036;stroke-width:1.5;" x1="690.5" x2="877.5" y1="604" y2="604"/><line style="stroke:#A80036;stroke-width:1.5;" x1="690.5" x2="877.5" y1="612" y2="612"/><!--MD5=[be996cdb8e6bf2fc7cb89c555f2cd144]
class Entity--><rect codeLine="29" fill="#FEFECE" height="124.8281" id="Entity" rx="3.5" ry="3.5" style="stroke:#A80036;stroke-width:1.5;" width="98" x="7" y="357"/><ellipse cx="35.95" cy="373" fill="#ADD1B2" rx="11" ry="11" style="stroke:#A80036;stroke-width:1.0;"/><path d="M38.9188,378.6406 Q38.3406,378.9375 37.7,379.0781 Q37.0594,379.2344 36.3563,379.2344 Q33.8563,379.2344 32.5281,377.5938 Q31.2156,375.9375 31.2156,372.8125 Q31.2156,369.6875 32.5281,368.0313 Q33.8563,366.375 36.3563,366.375 Q37.0594,366.375 37.7,366.5313 Q38.3563,366.6875 38.9188,366.9844 L38.9188,369.7031 Q38.2938,369.125 37.7,368.8594 Q37.1063,368.5781 36.4813,368.5781 Q35.1375,368.5781 34.45,369.6563 Q33.7625,370.7188 33.7625,372.8125 Q33.7625,374.9063 34.45,375.9844 Q35.1375,377.0469 36.4813,377.0469 Q37.1063,377.0469 37.7,376.7813 Q38.2938,376.5 38.9188,375.9219 L38.9188,378.6406 Z " fill="#000000"/><text fill="#000000" font-family="sans-serif" font-size="12" lengthAdjust="spacing" textLength="35" x="53.05" y="377.1543">Entity</text><line style="stroke:#A80036;stroke-width:1.5;" x1="8" x2="104" y1="389" y2="389"/><text fill="#000000" font-family="sans-serif" font-size="11" lengthAdjust="spacing" textLength="21" x="13" y="403.2104">age</text><text fill="#000000" font-family="sans-serif" font-size="11" lengthAdjust="spacing" textLength="35" x="13" y="416.0151">health</text><text fill="#000000" font-family="sans-serif" font-size="11" lengthAdjust="spacing" textLength="60" x="13" y="428.8198">maxHealth</text><text fill="#000000" font-family="sans-serif" font-size="11" lengthAdjust="spacing" textLength="52" x="13" y="441.6245">immunity</text><text fill="#000000" font-family="sans-serif" font-size="11" lengthAdjust="spacing" textLength="86" x="13" y="454.4292">currentPosition</text><text fill="#000000" font-family="sans-serif" font-size="11" lengthAdjust="spacing" textLength="59" x="13" y="467.2339">/isInfected</text><line style="stroke:#A80036;stroke-width:1.5;" x1="8" x2="104" y1="473.8281" y2="473.8281"/><!--MD5=[48753c528bd63753745db2611d3936af]
class Infection--><rect codeLine="38" fill="#FEFECE" height="73.6094" id="Infection" rx="3.5" ry="3.5" style="stroke:#A80036;stroke-width:1.5;" width="108" x="141" y="559"/><ellipse cx="165.9" cy="575" fill="#ADD1B2" rx="11" ry="11" style="stroke:#A80036;stroke-width:1.0;"/><path d="M168.8688,580.6406 Q168.2906,580.9375 167.65,581.0781 Q167.0094,581.2344 166.3063,581.2344 Q163.8063,581.2344 162.4781,579.5938 Q161.1656,577.9375 161.1656,574.8125 Q161.1656,571.6875 162.4781,570.0313 Q163.8063,568.375 166.3063,568.375 Q167.0094,568.375 167.65,568.5313 Q168.3063,568.6875 168.8688,568.9844 L168.8688,571.7031 Q168.2438,571.125 167.65,570.8594 Q167.0563,570.5781 166.4313,570.5781 Q165.0875,570.5781 164.4,571.6563 Q163.7125,572.7188 163.7125,574.8125 Q163.7125,576.9063 164.4,577.9844 Q165.0875,579.0469 166.4313,579.0469 Q167.0563,579.0469 167.65,578.7813 Q168.2438,578.5 168.8688,577.9219 L168.8688,580.6406 Z " fill="#000000"/><text fill="#000000" font-family="sans-serif" font-size="12" lengthAdjust="spacing" textLength="54" x="182.1" y="579.1543">Infection</text><line style="stroke:#A80036;stroke-width:1.5;" x1="142" x2="248" y1="591" y2="591"/><text fill="#000000" font-family="sans-serif" font-size="11" lengthAdjust="spacing" textLength="45" x="147" y="605.2104">severity</text><text fill="#000000" font-family="sans-serif" font-size="11" lengthAdjust="spacing" textLength="96" x="147" y="618.0151">infectionDuration</text><line style="stroke:#A80036;stroke-width:1.5;" x1="142" x2="248" y1="624.6094" y2="624.6094"/><!--MD5=[583949b48bb58d687b700008f98c6a20]
class Virus--><rect codeLine="44" fill="#FEFECE" height="86.4141" id="Virus" rx="3.5" ry="3.5" style="stroke:#A80036;stroke-width:1.5;" width="144" x="241" y="376.5"/><ellipse cx="293.25" cy="392.5" fill="#ADD1B2" rx="11" ry="11" style="stroke:#A80036;stroke-width:1.0;"/><path d="M296.2188,398.1406 Q295.6406,398.4375 295,398.5781 Q294.3594,398.7344 293.6563,398.7344 Q291.1563,398.7344 289.8281,397.0938 Q288.5156,395.4375 288.5156,392.3125 Q288.5156,389.1875 289.8281,387.5313 Q291.1563,385.875 293.6563,385.875 Q294.3594,385.875 295,386.0313 Q295.6563,386.1875 296.2188,386.4844 L296.2188,389.2031 Q295.5938,388.625 295,388.3594 Q294.4063,388.0781 293.7813,388.0781 Q292.4375,388.0781 291.75,389.1563 Q291.0625,390.2188 291.0625,392.3125 Q291.0625,394.4063 291.75,395.4844 Q292.4375,396.5469 293.7813,396.5469 Q294.4063,396.5469 295,396.2813 Q295.5938,396 296.2188,395.4219 L296.2188,398.1406 Z " fill="#000000"/><text fill="#000000" font-family="sans-serif" font-size="12" lengthAdjust="spacing" textLength="31" x="313.75" y="396.6543">Virus</text><line style="stroke:#A80036;stroke-width:1.5;" x1="242" x2="384" y1="408.5" y2="408.5"/><text fill="#000000" font-family="sans-serif" font-size="11" lengthAdjust="spacing" textLength="65" x="247" y="422.7104">spreadRate</text><text fill="#000000" font-family="sans-serif" font-size="11" lengthAdjust="spacing" textLength="132" x="247" y="435.5151">averagePositivityPeriod</text><text fill="#000000" font-family="sans-serif" font-size="11" lengthAdjust="spacing" textLength="115" x="247" y="448.3198">severeDeseaseProb</text><line style="stroke:#A80036;stroke-width:1.5;" x1="242" x2="384" y1="454.9141" y2="454.9141"/><!--MD5=[5d0a77e8f66918aa15fe0099dd6d4ba9]
class Environment--><rect codeLine="50" fill="#FEFECE" height="73.6094" id="Environment" rx="3.5" ry="3.5" style="stroke:#A80036;stroke-width:1.5;" width="110" x="253" y="7"/><ellipse cx="268" cy="23" fill="#ADD1B2" rx="11" ry="11" style="stroke:#A80036;stroke-width:1.0;"/><path d="M270.9688,28.6406 Q270.3906,28.9375 269.75,29.0781 Q269.1094,29.2344 268.4063,29.2344 Q265.9063,29.2344 264.5781,27.5938 Q263.2656,25.9375 263.2656,22.8125 Q263.2656,19.6875 264.5781,18.0313 Q265.9063,16.375 268.4063,16.375 Q269.1094,16.375 269.75,16.5313 Q270.4063,16.6875 270.9688,16.9844 L270.9688,19.7031 Q270.3438,19.125 269.75,18.8594 Q269.1563,18.5781 268.5313,18.5781 Q267.1875,18.5781 266.5,19.6563 Q265.8125,20.7188 265.8125,22.8125 Q265.8125,24.9063 266.5,25.9844 Q267.1875,27.0469 268.5313,27.0469 Q269.1563,27.0469 269.75,26.7813 Q270.3438,26.5 270.9688,25.9219 L270.9688,28.6406 Z " fill="#000000"/><text fill="#000000" font-family="sans-serif" font-size="12" lengthAdjust="spacing" textLength="78" x="282" y="27.1543">Environment</text><line style="stroke:#A80036;stroke-width:1.5;" x1="254" x2="362" y1="39" y2="39"/><text fill="#000000" font-family="sans-serif" font-size="11" lengthAdjust="spacing" textLength="25" x="259" y="53.2104">time</text><text fill="#000000" font-family="sans-serif" font-size="11" lengthAdjust="spacing" textLength="22" x="259" y="66.0151">size</text><line style="stroke:#A80036;stroke-width:1.5;" x1="254" x2="362" y1="72.6094" y2="72.6094"/><ellipse cx="204" cy="419.5" fill="#000000" rx="2" ry="2" style="stroke:none;stroke-width:1.0;"/><!--MD5=[e39498391ea791590335dc33bad4cddf]
class GenericBuildin--><!--MD5=[fe4f966fe4c8babe2c2fa78b0654bdda]
reverse link Structure to House--><path codeLine="56" d="M487.72,298.68 C463.83,351.93 432.01,421.33 402,482 C386.44,513.46 367.23,549.13 354.81,571.83 " fill="none" id="Structure-backto-House" style="stroke:#454645;stroke-width:1.0;"/><polygon fill="none" points="481.43,295.6,495.99,280.2,494.21,301.31,481.43,295.6" style="stroke:#454645;stroke-width:1.0;"/><!--MD5=[845c1117638a1cb0cf2dbbe391e962f5]
reverse link Structure to Hospital--><path codeLine="57" d="M599.72,295.19 C629.16,328.4 661.14,364.49 682.85,388.99 " fill="none" id="Structure-backto-Hospital" style="stroke:#454645;stroke-width:1.0;"/><polygon fill="none" points="594.45,299.8,586.43,280.19,604.93,290.51,594.45,299.8" style="stroke:#454645;stroke-width:1.0;"/><!--MD5=[75f39b956de913b762e6d3e5abf34e06]
reverse link Structure to GenericBuilding--><path codeLine="58" d="M538.82,300.24 C543.86,334.97 549.25,372.01 552.61,395.19 " fill="none" id="Structure-backto-GenericBuilding" style="stroke:#454645;stroke-width:1.0;"/><polygon fill="none" points="531.85,300.99,535.91,280.19,545.71,298.97,531.85,300.99" style="stroke:#454645;stroke-width:1.0;"/><!--MD5=[1513c36dd070b77f0e22e4d5ec965e3d]
link Structure to EntranceStrategy--><path codeLine="60" d="M604.85,252.31 C688.33,294.97 817.16,360.82 884.88,395.44 " fill="none" id="Structure-EntranceStrategy" style="stroke:#454645;stroke-width:1.0;"/><text fill="#000000" font-family="sans-serif" font-size="13" lengthAdjust="spacing" textLength="23" x="742" y="323.0669">has</text><!--MD5=[5ab5729bde9de9b811777c7a5a90519f]
reverse link EntranceStrategy to FilterBasedStrategy--><path codeLine="62" d="M944.71,462.59 C956.69,496.84 973.14,543.92 982.87,571.73 " fill="none" id="EntranceStrategy-backto-FilterBasedStrategy" style="stroke:#454645;stroke-width:1.0;"/><polygon fill="none" points="938.09,464.86,938.1,443.67,951.31,460.24,938.09,464.86" style="stroke:#454645;stroke-width:1.0;"/><!--MD5=[b961efa52d2e34a7ca9b506e8ba4ee90]
reverse link EntranceStrategy to FreeStrategy--><path codeLine="63" d="M976.5,455.78 C1022.06,490.34 1090.18,542.02 1129.33,571.73 " fill="none" id="EntranceStrategy-backto-FreeStrategy" style="stroke:#454645;stroke-width:1.0;"/><polygon fill="none" points="972.24,461.34,960.54,443.67,980.71,450.18,972.24,461.34" style="stroke:#454645;stroke-width:1.0;"/><!--MD5=[d51df0413336c84d02f4cdf1c1235c10]
reverse link EntranceStrategy to ProbabilityBasedStrategy--><path codeLine="64" d="M897.58,459.25 C868.73,493.73 827.5,543 803.47,571.73 " fill="none" id="EntranceStrategy-backto-ProbabilityBasedStrategy" style="stroke:#454645;stroke-width:1.0;"/><polygon fill="none" points="892.41,454.52,910.61,443.67,903.15,463.5,892.41,454.52" style="stroke:#454645;stroke-width:1.0;"/><!--MD5=[173a9daa82bd1c05833001a263369476]
reverse link Environment to Structure--><path codeLine="66" d="M365.95,88.86 C390.87,107.72 420.39,130.07 447.25,150.4 " fill="none" id="Environment-backto-Structure" style="stroke:#454645;stroke-width:1.0;"/><polygon fill="#FFFFFF" points="355.57,81.01,357.9431,87.8194,365.1414,88.2479,362.7684,81.4385,355.57,81.01" style="stroke:#454645;stroke-width:1.0;"/><!--MD5=[fa4567cac02dae994a103a9a54f539aa]
reverse link Environment to Entity--><path codeLine="67" d="M276.14,92.22 C230.84,159.36 147.76,282.49 97.64,356.79 " fill="none" id="Environment-backto-Entity" style="stroke:#454645;stroke-width:1.0;"/><polygon fill="#FFFFFF" points="283.61,81.15,276.9376,83.8849,276.8959,91.0959,283.5682,88.361,283.61,81.15" style="stroke:#454645;stroke-width:1.0;"/><!--MD5=[5755c8df24356e9428b44920262da903]
link Environment to Virus--><path codeLine="69" d="M308.48,81.15 C309.41,150.63 311.45,302.45 312.44,376.37 " fill="none" id="Environment-Virus" style="stroke:#454645;stroke-width:1.0;"/><text fill="#000000" font-family="sans-serif" font-size="13" lengthAdjust="spacing" textLength="71" x="313" y="215.5669">threatened</text><!--MD5=[398d3ab1bfc0571834d308d71b1eee8f]
link Entity to apoint25--><path d="M105.28,419.5 C142.95,419.5 190.28,419.5 201.52,419.5 " fill="none" id="Entity-apoint25" style="stroke:#454645;stroke-width:1.0;"/><text fill="#000000" font-family="sans-serif" font-size="13" lengthAdjust="spacing" textLength="60" x="123.5" y="412.5669">contracts</text><!--MD5=[ba7df2a6947d97013ca247f53517f74a]
link apoint25 to Virus--><path d="M206.13,419.5 C217.68,419.5 229.23,419.5 240.78,419.5 " fill="none" id="apoint25-Virus" style="stroke:#454645;stroke-width:1.0;"/><!--MD5=[1d3f8cff6eda39cacf4536767ce8ff22]
link apoint25 to Infection--><path d="M203.83,421.79 C202.73,429.92 196.81,475.01 195,512 C194.25,527.26 194.12,544.11 194.23,558.62 " fill="none" id="apoint25-Infection" style="stroke:#454645;stroke-width:1.0;stroke-dasharray:7.0,7.0;"/><!--MD5=[499649b85dcc3cb96ed0e9b38fa28d24]
link Entity to House--><path codeLine="74" d="M105.17,450.5 C162.18,485.29 254.83,541.81 305.7,572.85 " fill="none" id="Entity-House" style="stroke:#454645;stroke-width:1.0;"/><text fill="#000000" font-family="sans-serif" font-size="13" lengthAdjust="spacing" textLength="28" x="235" y="525.0669">lives</text><!--MD5=[f266a0f5967034171c9be12cf3f1a232]
link Structure to Entity--><path codeLine="75" d="M447.32,252.76 C428.39,262.08 408.12,271.69 389,280 C299.74,318.8 273.51,318.78 184,357 C157.59,368.28 128.7,382.03 105.07,393.67 " fill="none" id="Structure-Entity" style="stroke:#454645;stroke-width:1.0;"/><text fill="#000000" font-family="sans-serif" font-size="13" lengthAdjust="spacing" textLength="47" x="313" y="323.0669">located</text><!--MD5=[35cc3c9decd128a2ee74fd1ecf154e2d]
link Virus to House--><!--MD5=[35cc3c9decd128a2ee74fd1ecf154e2d]
link Virus to House--><!--MD5=[42209d0e4349a681fe4ef583a445f3b7]
link Virus to Infection--><!--MD5=[6ef1f123c835f097c9c9e16a806c0795]
link Hospital to GenericBuildin--><!--MD5=[2ee470b7e30054c32c25a0538da22e9f]
@startuml
!theme vibrant

class Structure {
  position
  infectionRate
  capacity
  /currentNumberOfPeople
  isOpen
  visibilityRadius
  averagePermanenceTime
}

class House {}

class Hospital {
  treatmentQuality
}

class GenericBuilding {}

class EntranceStrategy {}

class FilterBasedStrategy {}

class FreeStrategy {}

class ProbabilityBasedStrategy {}

class Entity {
  age
  health
  maxHealth
  immunity
  currentPosition
  /isInfected
}

class Infection {
  severity
  infectionDuration

}

class Virus {
  spreadRate
  averagePositivityPeriod
  severeDeseaseProb
}

class Environment {
  time
  size
}


Structure <|- - House
Structure <|- - Hospital
Structure <|- - GenericBuilding

Structure - - EntranceStrategy : "has"

EntranceStrategy <|- - FilterBasedStrategy
EntranceStrategy <|- - FreeStrategy
EntranceStrategy <|- - ProbabilityBasedStrategy

Environment o- - Structure
Environment o- - Entity

Environment - - Virus : "threatened"

Entity - Virus : "contracts"
(Entity, Virus) .. Infection

Entity - - House : "lives"
Structure - - Entity : "located"

Virus -[hidden]- House
Virus -[hidden]- Infection
Virus -[hidden]- House
Hospital -[hidden]- GenericBuildin


hide GenericBuildin

@enduml

@startuml
skinparam BackgroundColor FFFFFF
skinparam shadowing false
skinparam RoundCorner 7
skinparam ArrowColor 454645
skinparam FontColor 454645
skinparam SequenceLifeLineBorderColor 696969
skinparam SequenceGroupHeaderFontColor 454645
skinparam SequenceGroupFontColor 696969
skinparam SequenceGroupBorderColor 696969
skinparam SequenceGroupBorderThickness 1

skinparam sequenceDivider {
    BorderColor 454645
    BorderThickness 1
    FontColor 454645
}

skinparam participant {
    BackgroundColor FF6347
    BorderColor FF6F61
    FontColor FFFFFF
}

skinparam database {
    BackgroundColor 00FFFF
    BorderColor 454645
    FontColor 454645
}

skinparam entity {
    BackgroundColor FFE552
    BorderColor 454645
    FontColor 454645
}

skinparam note {
    BackgroundColor 7FFFD4
    BorderColor 7FFFD4
    FontColor 454645
}

skinparam actor {
    BackgroundColor 454645
    BorderColor 454645
    FontColor 454645
}

skinparam boundary {
    BackgroundColor FFE552
    BorderColor 454645
    FontColor 454645
}

skinparam control {
    BackgroundColor FFE552
    BorderColor 454645
    FontColor 454645
}

skinparam collections {
    BackgroundColor FF6347
    BorderColor FFFFFF
    FontColor 454645
}

skinparam queue {
    BackgroundColor FF6347
    BorderColor FFF
    FontColor FFF
    BorderThickness 1.5
}

class Structure {
  position
  infectionRate
  capacity
  /currentNumberOfPeople
  isOpen
  visibilityRadius
  averagePermanenceTime
}

class House {}

class Hospital {
  treatmentQuality
}

class GenericBuilding {}

class EntranceStrategy {}

class FilterBasedStrategy {}

class FreeStrategy {}

class ProbabilityBasedStrategy {}

class Entity {
  age
  health
  maxHealth
  immunity
  currentPosition
  /isInfected
}

class Infection {
  severity
  infectionDuration

}

class Virus {
  spreadRate
  averagePositivityPeriod
  severeDeseaseProb
}

class Environment {
  time
  size
}


Structure <|- - House
Structure <|- - Hospital
Structure <|- - GenericBuilding

Structure - - EntranceStrategy : "has"

EntranceStrategy <|- - FilterBasedStrategy
EntranceStrategy <|- - FreeStrategy
EntranceStrategy <|- - ProbabilityBasedStrategy

Environment o- - Structure
Environment o- - Entity

Environment - - Virus : "threatened"

Entity - Virus : "contracts"
(Entity, Virus) .. Infection

Entity - - House : "lives"
Structure - - Entity : "located"

Virus -[hidden]- House
Virus -[hidden]- Infection
Virus -[hidden]- House
Hospital -[hidden]- GenericBuildin


hide GenericBuildin

@enduml

PlantUML version 1.2021.13(Mon Nov 01 12:38:45 CET 2021)
(GPL source distribution)
Java Runtime: OpenJDK Runtime Environment
JVM: OpenJDK 64-Bit Server VM
Default Encoding: UTF-8
Language: en
Country: GB
--></g></svg>