<?xml version="1.0" encoding="UTF-8" standalone="no"?><svg xmlns="http://www.w3.org/2000/svg" xmlns:xlink="http://www.w3.org/1999/xlink" contentStyleType="text/css" height="675px" preserveAspectRatio="none" style="width:764px;height:675px;background:#FFFFFF;" version="1.1" viewBox="0 0 764 675" width="764px" zoomAndPan="magnify"><defs/><g><!--MD5=[d4eea0a2640b0744e449422abbb6da5e]
class Boundary--><g id="elem_Boundary"><rect codeLine="4" fill="#F1F1F1" height="129.75" id="Boundary" rx="3.5" ry="3.5" style="stroke:#181818;stroke-width:0.5;" width="287" x="228.5" y="7"/><ellipse cx="334.75" cy="27.1328" fill="#B4A7E5" rx="11" ry="11" style="stroke:#181818;stroke-width:1.0;"/><path d="M330.6719,22.8984 L330.6719,20.7422 L338.0625,20.7422 L338.0625,22.8984 L335.5938,22.8984 L335.5938,30.9766 L338.0625,30.9766 L338.0625,33.1328 L330.6719,33.1328 L330.6719,30.9766 L333.1406,30.9766 L333.1406,22.8984 L330.6719,22.8984 Z " fill="#000000"/><text fill="#000000" font-family="sans-serif" font-size="12" font-style="italic" lengthAdjust="spacing" textLength="40" x="368.25" y="23.1387">«trait»</text><text fill="#000000" font-family="sans-serif" font-size="14" font-style="italic" lengthAdjust="spacing" textLength="66" x="355.25" y="38.9639">Boundary</text><line style="stroke:#181818;stroke-width:0.5;" x1="229.5" x2="514.5" y1="47.2656" y2="47.2656"/><text fill="#000000" font-family="sans-serif" font-size="14" lengthAdjust="spacing" textLength="109" x="234.5" y="64.2607">init(): Task[Unit]</text><text fill="#000000" font-family="sans-serif" font-size="14" lengthAdjust="spacing" textLength="120" x="234.5" y="80.5576">start(): Task[Unit]</text><text fill="#000000" font-family="sans-serif" font-size="14" lengthAdjust="spacing" textLength="193" x="234.5" y="96.8545">events(): Observable[Event]</text><text fill="#000000" font-family="sans-serif" font-size="14" lengthAdjust="spacing" textLength="275" x="234.5" y="113.1514">consume(env: Environment): Task[Unit]</text><text fill="#000000" font-family="sans-serif" font-size="14" lengthAdjust="spacing" textLength="120" x="234.5" y="129.4482">stop(): Task[Unit]</text></g><!--MD5=[c86ce95fe6226f2d2796c0513d8e83fe]
class Engine--><g id="elem_Engine"><rect codeLine="12" fill="#F1F1F1" height="64.5625" id="Engine" rx="3.5" ry="3.5" style="stroke:#181818;stroke-width:0.5;" width="358" x="7" y="330"/><ellipse cx="157.75" cy="350.1328" fill="#B4A7E5" rx="11" ry="11" style="stroke:#181818;stroke-width:1.0;"/><path d="M153.6719,345.8984 L153.6719,343.7422 L161.0625,343.7422 L161.0625,345.8984 L158.5938,345.8984 L158.5938,353.9766 L161.0625,353.9766 L161.0625,356.1328 L153.6719,356.1328 L153.6719,353.9766 L156.1406,353.9766 L156.1406,345.8984 L153.6719,345.8984 Z " fill="#000000"/><text fill="#000000" font-family="sans-serif" font-size="12" font-style="italic" lengthAdjust="spacing" textLength="40" x="182.25" y="346.1387">«trait»</text><text fill="#000000" font-family="sans-serif" font-size="14" font-style="italic" lengthAdjust="spacing" textLength="48" x="178.25" y="361.9639">Engine</text><line style="stroke:#181818;stroke-width:0.5;" x1="8" x2="364" y1="370.2656" y2="370.2656"/><text fill="#000000" font-family="sans-serif" font-size="14" lengthAdjust="spacing" textLength="346" x="13" y="387.2607">startSimulationLoop(env: Environment): Task[Unit]</text></g><!--MD5=[db3170b8313bf70303600a68db1112cb]
class Launcher--><g id="elem_Launcher"><rect codeLine="16" fill="#F1F1F1" height="64.5625" id="Launcher" rx="3.5" ry="3.5" style="stroke:#181818;stroke-width:0.5;" width="147" x="424.5" y="197"/><ellipse cx="462.45" cy="217.1328" fill="#B4A7E5" rx="11" ry="11" style="stroke:#181818;stroke-width:1.0;"/><path d="M458.3719,212.8984 L458.3719,210.7422 L465.7625,210.7422 L465.7625,212.8984 L463.2938,212.8984 L463.2938,220.9766 L465.7625,220.9766 L465.7625,223.1328 L458.3719,223.1328 L458.3719,220.9766 L460.8406,220.9766 L460.8406,212.8984 L458.3719,212.8984 Z " fill="#000000"/><text fill="#000000" font-family="sans-serif" font-size="12" font-style="italic" lengthAdjust="spacing" textLength="40" x="493.55" y="213.1387">«trait»</text><text fill="#000000" font-family="sans-serif" font-size="14" font-style="italic" lengthAdjust="spacing" textLength="64" x="481.55" y="228.9639">Launcher</text><line style="stroke:#181818;stroke-width:0.5;" x1="425.5" x2="570.5" y1="237.2656" y2="237.2656"/><text fill="#000000" font-family="sans-serif" font-size="14" lengthAdjust="spacing" textLength="135" x="430.5" y="254.2607">launch(): Task[Unit]</text></g><!--MD5=[8d729038c48ea67d1bfca0b0b8d717df]
class Loader--><g id="elem_Loader"><rect codeLine="20" fill="#F1F1F1" height="80.8594" id="Loader" rx="3.5" ry="3.5" style="stroke:#181818;stroke-width:0.5;" width="320" x="400" y="322"/><ellipse cx="532.25" cy="342.1328" fill="#B4A7E5" rx="11" ry="11" style="stroke:#181818;stroke-width:1.0;"/><path d="M528.1719,337.8984 L528.1719,335.7422 L535.5625,335.7422 L535.5625,337.8984 L533.0938,337.8984 L533.0938,345.9766 L535.5625,345.9766 L535.5625,348.1328 L528.1719,348.1328 L528.1719,345.9766 L530.6406,345.9766 L530.6406,337.8984 L528.1719,337.8984 Z " fill="#000000"/><text fill="#000000" font-family="sans-serif" font-size="12" font-style="italic" lengthAdjust="spacing" textLength="40" x="556.25" y="338.1387">«trait»</text><text fill="#000000" font-family="sans-serif" font-size="14" font-style="italic" lengthAdjust="spacing" textLength="47" x="552.75" y="353.9639">Loader</text><line style="stroke:#181818;stroke-width:0.5;" x1="401" x2="719" y1="362.2656" y2="362.2656"/><text fill="#000000" font-family="sans-serif" font-size="14" lengthAdjust="spacing" textLength="308" x="406" y="379.2607">parseConfiguration(path: Path): Task[Result]</text><text fill="#000000" font-family="sans-serif" font-size="14" lengthAdjust="spacing" textLength="299" x="406" y="395.5576">startEngine(conf: Configuration): Task[Unit]</text></g><!--MD5=[628cc5a2753cca06eb1ffef55c386535]
class Parser--><g id="elem_Parser"><rect codeLine="26" fill="#F1F1F1" height="97.1563" id="Parser" rx="3.5" ry="3.5" style="stroke:#181818;stroke-width:0.5;" width="394" x="363" y="463"/><ellipse cx="533.75" cy="483.1328" fill="#B4A7E5" rx="11" ry="11" style="stroke:#181818;stroke-width:1.0;"/><path d="M529.6719,478.8984 L529.6719,476.7422 L537.0625,476.7422 L537.0625,478.8984 L534.5938,478.8984 L534.5938,486.9766 L537.0625,486.9766 L537.0625,489.1328 L529.6719,489.1328 L529.6719,486.9766 L532.1406,486.9766 L532.1406,478.8984 L529.6719,478.8984 Z " fill="#000000"/><text fill="#000000" font-family="sans-serif" font-size="12" font-style="italic" lengthAdjust="spacing" textLength="40" x="556.25" y="479.1387">«trait»</text><text fill="#000000" font-family="sans-serif" font-size="14" font-style="italic" lengthAdjust="spacing" textLength="44" x="554.25" y="494.9639">Parser</text><line style="stroke:#181818;stroke-width:0.5;" x1="364" x2="756" y1="503.2656" y2="503.2656"/><text fill="#000000" font-family="sans-serif" font-size="14" lengthAdjust="spacing" textLength="227" x="369" y="520.2607">readFile(path: Path): Task[String]</text><text fill="#000000" font-family="sans-serif" font-size="14" lengthAdjust="spacing" textLength="382" x="369" y="536.5576">loadConfiguration(program: String): Task[Configuration]</text><text fill="#000000" font-family="sans-serif" font-size="14" lengthAdjust="spacing" textLength="320" x="369" y="552.8545">checkErrors(conf: Configuration): Task[Result]</text></g><!--MD5=[5d0a77e8f66918aa15fe0099dd6d4ba9]
class Environment--><g id="elem_Environment"><rect codeLine="33" fill="#F1F1F1" height="80.8594" id="Environment" rx="3.5" ry="3.5" style="stroke:#181818;stroke-width:0.5;" width="119" x="167.5" y="471"/><ellipse cx="182.5" cy="491.1328" fill="#B4A7E5" rx="11" ry="11" style="stroke:#181818;stroke-width:1.0;"/><path d="M178.4219,486.8984 L178.4219,484.7422 L185.8125,484.7422 L185.8125,486.8984 L183.3438,486.8984 L183.3438,494.9766 L185.8125,494.9766 L185.8125,497.1328 L178.4219,497.1328 L178.4219,494.9766 L180.8906,494.9766 L180.8906,486.8984 L178.4219,486.8984 Z " fill="#000000"/><text fill="#000000" font-family="sans-serif" font-size="12" font-style="italic" lengthAdjust="spacing" textLength="40" x="220" y="487.1387">«trait»</text><text fill="#000000" font-family="sans-serif" font-size="14" font-style="italic" lengthAdjust="spacing" textLength="87" x="196.5" y="502.9639">Environment</text><line style="stroke:#181818;stroke-width:0.5;" x1="168.5" x2="285.5" y1="511.2656" y2="511.2656"/><text fill="#000000" font-family="sans-serif" font-size="14" lengthAdjust="spacing" textLength="83" x="173.5" y="528.2607">time(): Time</text><text fill="#000000" font-family="sans-serif" font-size="14" lengthAdjust="spacing" textLength="64" x="173.5" y="544.5576">size(): Int</text></g><!--MD5=[583949b48bb58d687b700008f98c6a20]
class Virus--><g id="elem_Virus"><rect codeLine="39" fill="#F1F1F1" height="48.2656" id="Virus" rx="3.5" ry="3.5" style="stroke:#181818;stroke-width:0.5;" width="68" x="76" y="620"/><ellipse cx="91" cy="640.1328" fill="#B4A7E5" rx="11" ry="11" style="stroke:#181818;stroke-width:1.0;"/><path d="M86.9219,635.8984 L86.9219,633.7422 L94.3125,633.7422 L94.3125,635.8984 L91.8438,635.8984 L91.8438,643.9766 L94.3125,643.9766 L94.3125,646.1328 L86.9219,646.1328 L86.9219,643.9766 L89.3906,643.9766 L89.3906,635.8984 L86.9219,635.8984 Z " fill="#000000"/><text fill="#000000" font-family="sans-serif" font-size="12" font-style="italic" lengthAdjust="spacing" textLength="40" x="103" y="636.1387">«trait»</text><text fill="#000000" font-family="sans-serif" font-size="14" font-style="italic" lengthAdjust="spacing" textLength="34" x="106" y="651.9639">Virus</text><line style="stroke:#181818;stroke-width:0.5;" x1="77" x2="143" y1="660.2656" y2="660.2656"/></g><!--MD5=[3915787db80ab162e3259f8f86339844]
class Structure--><g id="elem_Structure"><rect codeLine="40" fill="#F1F1F1" height="48.2656" id="Structure" rx="3.5" ry="3.5" style="stroke:#181818;stroke-width:0.5;" width="96" x="179" y="620"/><ellipse cx="194" cy="640.1328" fill="#B4A7E5" rx="11" ry="11" style="stroke:#181818;stroke-width:1.0;"/><path d="M189.9219,635.8984 L189.9219,633.7422 L197.3125,633.7422 L197.3125,635.8984 L194.8438,635.8984 L194.8438,643.9766 L197.3125,643.9766 L197.3125,646.1328 L189.9219,646.1328 L189.9219,643.9766 L192.3906,643.9766 L192.3906,635.8984 L189.9219,635.8984 Z " fill="#000000"/><text fill="#000000" font-family="sans-serif" font-size="12" font-style="italic" lengthAdjust="spacing" textLength="40" x="220" y="636.1387">«trait»</text><text fill="#000000" font-family="sans-serif" font-size="14" font-style="italic" lengthAdjust="spacing" textLength="64" x="208" y="651.9639">Structure</text><line style="stroke:#181818;stroke-width:0.5;" x1="180" x2="274" y1="660.2656" y2="660.2656"/></g><!--MD5=[be996cdb8e6bf2fc7cb89c555f2cd144]
class Entity--><g id="elem_Entity"><rect codeLine="41" fill="#F1F1F1" height="48.2656" id="Entity" rx="3.5" ry="3.5" style="stroke:#181818;stroke-width:0.5;" width="70" x="310" y="620"/><ellipse cx="325" cy="640.1328" fill="#B4A7E5" rx="11" ry="11" style="stroke:#181818;stroke-width:1.0;"/><path d="M320.9219,635.8984 L320.9219,633.7422 L328.3125,633.7422 L328.3125,635.8984 L325.8438,635.8984 L325.8438,643.9766 L328.3125,643.9766 L328.3125,646.1328 L320.9219,646.1328 L320.9219,643.9766 L323.3906,643.9766 L323.3906,635.8984 L320.9219,635.8984 Z " fill="#000000"/><text fill="#000000" font-family="sans-serif" font-size="12" font-style="italic" lengthAdjust="spacing" textLength="40" x="338" y="636.1387">«trait»</text><text fill="#000000" font-family="sans-serif" font-size="14" font-style="italic" lengthAdjust="spacing" textLength="38" x="339" y="651.9639">Entity</text><line style="stroke:#181818;stroke-width:0.5;" x1="311" x2="379" y1="660.2656" y2="660.2656"/></g><!--MD5=[5755c8df24356e9428b44920262da903]
link Environment to Virus--><g id="link_Environment_Virus"><path codeLine="45" d="M191.58,552.01 C171.67,574.21 147.52,601.16 130.68,619.94 " fill="none" id="Environment-Virus" style="stroke:#454645;stroke-width:1.0;"/></g><!--MD5=[b712e0bef1368955217c911e44191a80]
link Environment to Structure--><g id="link_Environment_Structure"><path codeLine="46" d="M227,552.01 C227,574.21 227,601.16 227,619.94 " fill="none" id="Environment-Structure" style="stroke:#454645;stroke-width:1.0;"/></g><!--MD5=[67e328040028ba60796c6a1aae205651]
link Environment to Entity--><g id="link_Environment_Entity"><path codeLine="47" d="M262.72,552.01 C282.8,574.21 307.16,601.16 324.15,619.94 " fill="none" id="Environment-Entity" style="stroke:#454645;stroke-width:1.0;"/></g><!--MD5=[949f1fcec0ba7c62762cb8105ff9f66e]
reverse link Boundary to Engine--><g id="link_Boundary_Engine"><path codeLine="49" d="M327.98,141.27 C289.59,200.83 235.6,284.57 206.5,329.7 " fill="none" id="Boundary-backto-Engine" style="stroke:#454645;stroke-width:1.0;stroke-dasharray:7.0,7.0;"/><polygon fill="#454645" points="330.72,137.03,322.4755,142.4178,328.0061,141.2294,329.1945,146.76,330.72,137.03" style="stroke:#454645;stroke-width:1.0;"/></g><!--MD5=[817029c390b635902b3d220e50caad6e]
reverse link Boundary to Launcher--><g id="link_Boundary_Launcher"><path codeLine="50" d="M427.51,141.5 C443.13,160.78 459.37,180.83 472.32,196.81 " fill="none" id="Boundary-backto-Launcher" style="stroke:#454645;stroke-width:1.0;stroke-dasharray:7.0,7.0;"/><polygon fill="#454645" points="423.98,137.15,426.5298,146.6631,427.1243,141.0376,432.7499,141.6321,423.98,137.15" style="stroke:#454645;stroke-width:1.0;"/></g><!--MD5=[7fa192a5cadff1e06104c2d1af49c6c5]
link Launcher to Loader--><g id="link_Launcher_Loader"><path codeLine="52" d="M513.01,262.21 C520.81,278.69 530.46,299.09 538.99,317.1 " fill="none" id="Launcher-to-Loader" style="stroke:#454645;stroke-width:1.0;stroke-dasharray:7.0,7.0;"/><polygon fill="#454645" points="541.13,321.63,540.8841,311.7842,538.9859,317.1131,533.657,315.2148,541.13,321.63" style="stroke:#454645;stroke-width:1.0;"/></g><!--MD5=[acddb9202b17db0601a5d70b322a3357]
link Loader to Parser--><g id="link_Loader_Parser"><path codeLine="54" d="M560,403.28 C560,420.07 560,439.85 560,457.83 " fill="none" id="Loader-to-Parser" style="stroke:#454645;stroke-width:1.0;stroke-dasharray:7.0,7.0;"/><polygon fill="#454645" points="560,462.84,564,453.84,560,457.84,556,453.84,560,462.84" style="stroke:#454645;stroke-width:1.0;"/></g><!--MD5=[1ac1fac28c7062ed32ea6dd4232491e9]
link Engine to Environment--><g id="link_Engine_Environment"><path codeLine="56" d="M194.8,395.04 C200.57,415.75 208.22,443.15 214.61,466.06 " fill="none" id="Engine-to-Environment" style="stroke:#454645;stroke-width:1.0;stroke-dasharray:7.0,7.0;"/><polygon fill="#454645" points="215.95,470.88,217.3848,461.1362,214.6066,466.0638,209.679,463.2856,215.95,470.88" style="stroke:#454645;stroke-width:1.0;"/></g><!--MD5=[a6440a9b4e0e2e2a2aa2b6351013b018]
link Loader to Environment--><g id="link_Loader_Environment"><path codeLine="58" d="M470.32,403.09 C413.87,428.01 342.33,459.59 291.47,482.04 " fill="none" id="Loader-to-Environment" style="stroke:#454645;stroke-width:1.0;stroke-dasharray:7.0,7.0;"/><polygon fill="#454645" points="286.61,484.19,296.4588,484.2215,291.1855,482.1739,293.2331,476.9006,286.61,484.19" style="stroke:#454645;stroke-width:1.0;"/></g><!--MD5=[2f229e212498a0bd1ccddf762a02f595]
@startuml

!theme vibrant

interface Boundary <<trait>> {
  init(): Task[Unit]
  start(): Task[Unit]
  events(): Observable[Event]
  consume(env: Environment): Task[Unit]
  stop(): Task[Unit]
}

interface Engine <<trait>> {
  startSimulationLoop(env: Environment): Task[Unit]
}

interface Launcher <<trait>> {
  launch(): Task[Unit]
}

interface Loader <<trait>> {
  parseConfiguration(path: Path): Task[Result]
  startEngine(conf: Configuration): Task[Unit]
}


interface Parser <<trait>> {
  readFile(path: Path): Task[String]
  loadConfiguration(program: String): Task[Configuration]
  checkErrors(conf: Configuration): Task[Result]
}


interface Environment <<trait>> {
  time(): Time
  size(): Int
}


interface Virus <<trait>>
interface Structure <<trait>>
interface Entity <<trait>>

hide fields

Environment - - Virus
Environment - - Structure
Environment - - Entity

Boundary <.. Engine
Boundary <.. Launcher

Launcher ..> Loader

Loader ..> Parser

Engine ..> Environment

Loader ..> Environment

@enduml

@startuml

skinparam BackgroundColor FFFFFF
skinparam shadowing false
skinparam RoundCorner 7
skinparam ArrowColor 454645
skinparam FontColor 454645
skinparam SequenceLifeLineBorderColor 696969
skinparam SequenceGroupHeaderFontColor 454645
skinparam SequenceGroupFontColor 696969
skinparam SequenceGroupBorderColor 696969
skinparam SequenceGroupBorderThickness 1

skinparam sequenceDivider {
    BorderColor 454645
    BorderThickness 1
    FontColor 454645
}

skinparam participant {
    BackgroundColor FF6347
    BorderColor 454645
    FontColor FFFFFF
    BorderThickness 1.5
}

skinparam database {
    BackgroundColor 00FFFF
    BorderColor 454645
    FontColor 454645
}

skinparam entity {
    BackgroundColor FFE552
    BorderColor 454645
    FontColor 454645
}

skinparam note {
    BackgroundColor 7FFFD4
    BorderColor 454645
    FontColor 454645
    BorderThickness 1.5
}

skinparam actor {
    BackgroundColor 454645
    BorderColor 454645
    FontColor 454645
}

skinparam boundary {
    BackgroundColor FFE552
    BorderColor 454645
    FontColor 454645
}

skinparam control {
    BackgroundColor FFE552
    BorderColor 454645
    FontColor 454645
}

skinparam collections {
    BackgroundColor FF5F42
    BorderColor 454645
    FontColor 454645
}

skinparam queue {
    BackgroundColor FF6347
    BorderColor 454645
    FontColor FFF
    BorderThickness 1.5
}

interface Boundary <<trait>> {
  init(): Task[Unit]
  start(): Task[Unit]
  events(): Observable[Event]
  consume(env: Environment): Task[Unit]
  stop(): Task[Unit]
}

interface Engine <<trait>> {
  startSimulationLoop(env: Environment): Task[Unit]
}

interface Launcher <<trait>> {
  launch(): Task[Unit]
}

interface Loader <<trait>> {
  parseConfiguration(path: Path): Task[Result]
  startEngine(conf: Configuration): Task[Unit]
}


interface Parser <<trait>> {
  readFile(path: Path): Task[String]
  loadConfiguration(program: String): Task[Configuration]
  checkErrors(conf: Configuration): Task[Result]
}


interface Environment <<trait>> {
  time(): Time
  size(): Int
}


interface Virus <<trait>>
interface Structure <<trait>>
interface Entity <<trait>>

hide fields

Environment - - Virus
Environment - - Structure
Environment - - Entity

Boundary <.. Engine
Boundary <.. Launcher

Launcher ..> Loader

Loader ..> Parser

Engine ..> Environment

Loader ..> Environment

@enduml

PlantUML version 1.2022.6(Tue Jun 21 19:34:49 CEST 2022)
(GPL source distribution)
Java Runtime: OpenJDK Runtime Environment
JVM: OpenJDK 64-Bit Server VM
Default Encoding: UTF-8
Language: en
Country: GB
--></g></svg>