<?xml version="1.0" encoding="UTF-8" standalone="no"?><svg xmlns="http://www.w3.org/2000/svg" xmlns:xlink="http://www.w3.org/1999/xlink" contentScriptType="application/ecmascript" contentStyleType="text/css" height="624px" preserveAspectRatio="none" style="width:645px;height:624px;background:#FFFFFF;" version="1.1" viewBox="0 0 645 624" width="645px" zoomAndPan="magnify"><defs/><g><!--MD5=[d4eea0a2640b0744e449422abbb6da5e]
class Boundary--><rect codeLine="4" fill="#FEFECE" height="109.9609" id="Boundary" rx="3.5" ry="3.5" style="stroke:#A80036;stroke-width:1.5;" width="236" x="196" y="7"/><ellipse cx="280.25" cy="25.9688" fill="#B4A7E5" rx="11" ry="11" style="stroke:#A80036;stroke-width:1.0;"/><path d="M276.1719,21.7344 L276.1719,19.5781 L283.5625,19.5781 L283.5625,21.7344 L281.0938,21.7344 L281.0938,29.8125 L283.5625,29.8125 L283.5625,31.9688 L276.1719,31.9688 L276.1719,29.8125 L278.6406,29.8125 L278.6406,21.7344 L276.1719,21.7344 Z " fill="#000000"/><text fill="#000000" font-family="sans-serif" font-size="12" font-style="italic" lengthAdjust="spacing" textLength="40" x="310.25" y="23.1387">«trait»</text><text fill="#000000" font-family="sans-serif" font-size="12" font-style="italic" lengthAdjust="spacing" textLength="59" x="300.75" y="37.1074">Boundary</text><line style="stroke:#A80036;stroke-width:1.5;" x1="197" x2="431" y1="44.9375" y2="44.9375"/><text fill="#000000" font-family="sans-serif" font-size="11" lengthAdjust="spacing" textLength="90" x="202" y="59.1479">init(): Task[Unit]</text><text fill="#000000" font-family="sans-serif" font-size="11" lengthAdjust="spacing" textLength="100" x="202" y="71.9526">start(): Task[Unit]</text><text fill="#000000" font-family="sans-serif" font-size="11" lengthAdjust="spacing" textLength="158" x="202" y="84.7573">events(): Observable[Event]</text><text fill="#000000" font-family="sans-serif" font-size="11" lengthAdjust="spacing" textLength="224" x="202" y="97.562">consume(env: Environment): Task[Unit]</text><text fill="#000000" font-family="sans-serif" font-size="11" lengthAdjust="spacing" textLength="98" x="202" y="110.3667">stop(): Task[Unit]</text><!--MD5=[c86ce95fe6226f2d2796c0513d8e83fe]
class Engine--><rect codeLine="12" fill="#FEFECE" height="58.7422" id="Engine" rx="3.5" ry="3.5" style="stroke:#A80036;stroke-width:1.5;" width="298" x="7" y="302.5"/><ellipse cx="130.25" cy="321.4688" fill="#B4A7E5" rx="11" ry="11" style="stroke:#A80036;stroke-width:1.0;"/><path d="M126.1719,317.2344 L126.1719,315.0781 L133.5625,315.0781 L133.5625,317.2344 L131.0938,317.2344 L131.0938,325.3125 L133.5625,325.3125 L133.5625,327.4688 L126.1719,327.4688 L126.1719,325.3125 L128.6406,325.3125 L128.6406,317.2344 L126.1719,317.2344 Z " fill="#000000"/><text fill="#000000" font-family="sans-serif" font-size="12" font-style="italic" lengthAdjust="spacing" textLength="40" x="152.25" y="318.6387">«trait»</text><text fill="#000000" font-family="sans-serif" font-size="12" font-style="italic" lengthAdjust="spacing" textLength="43" x="150.75" y="332.6074">Engine</text><line style="stroke:#A80036;stroke-width:1.5;" x1="8" x2="304" y1="340.4375" y2="340.4375"/><text fill="#000000" font-family="sans-serif" font-size="11" lengthAdjust="spacing" textLength="286" x="13" y="354.6479">startSimulationLoop(env: Environment): Task[Unit]</text><!--MD5=[db3170b8313bf70303600a68db1112cb]
class Launcher--><rect codeLine="16" fill="#FEFECE" height="58.7422" id="Launcher" rx="3.5" ry="3.5" style="stroke:#A80036;stroke-width:1.5;" width="122" x="361" y="177"/><ellipse cx="390.4" cy="195.9688" fill="#B4A7E5" rx="11" ry="11" style="stroke:#A80036;stroke-width:1.0;"/><path d="M386.3219,191.7344 L386.3219,189.5781 L393.7125,189.5781 L393.7125,191.7344 L391.2438,191.7344 L391.2438,199.8125 L393.7125,199.8125 L393.7125,201.9688 L386.3219,201.9688 L386.3219,199.8125 L388.7906,199.8125 L388.7906,191.7344 L386.3219,191.7344 Z " fill="#000000"/><text fill="#000000" font-family="sans-serif" font-size="12" font-style="italic" lengthAdjust="spacing" textLength="40" x="416.6" y="193.1387">«trait»</text><text fill="#000000" font-family="sans-serif" font-size="12" font-style="italic" lengthAdjust="spacing" textLength="58" x="407.6" y="207.1074">Launcher</text><line style="stroke:#A80036;stroke-width:1.5;" x1="362" x2="482" y1="214.9375" y2="214.9375"/><text fill="#000000" font-family="sans-serif" font-size="11" lengthAdjust="spacing" textLength="110" x="367" y="229.1479">launch(): Task[Unit]</text><!--MD5=[8d729038c48ea67d1bfca0b0b8d717df]
class Loader--><rect codeLine="20" fill="#FEFECE" height="71.5469" id="Loader" rx="3.5" ry="3.5" style="stroke:#A80036;stroke-width:1.5;" width="265" x="340.5" y="296"/><ellipse cx="447.25" cy="314.9688" fill="#B4A7E5" rx="11" ry="11" style="stroke:#A80036;stroke-width:1.0;"/><path d="M443.1719,310.7344 L443.1719,308.5781 L450.5625,308.5781 L450.5625,310.7344 L448.0938,310.7344 L448.0938,318.8125 L450.5625,318.8125 L450.5625,320.9688 L443.1719,320.9688 L443.1719,318.8125 L445.6406,318.8125 L445.6406,310.7344 L443.1719,310.7344 Z " fill="#000000"/><text fill="#000000" font-family="sans-serif" font-size="12" font-style="italic" lengthAdjust="spacing" textLength="40" x="469.25" y="312.1387">«trait»</text><text fill="#000000" font-family="sans-serif" font-size="12" font-style="italic" lengthAdjust="spacing" textLength="43" x="467.75" y="326.1074">Loader</text><line style="stroke:#A80036;stroke-width:1.5;" x1="341.5" x2="604.5" y1="333.9375" y2="333.9375"/><text fill="#000000" font-family="sans-serif" font-size="11" lengthAdjust="spacing" textLength="253" x="346.5" y="348.1479">parseConfiguration(path: Path): Task[Result]</text><text fill="#000000" font-family="sans-serif" font-size="11" lengthAdjust="spacing" textLength="246" x="346.5" y="360.9526">startEngine(conf: Configuration): Task[Unit]</text><!--MD5=[628cc5a2753cca06eb1ffef55c386535]
class Parser--><rect codeLine="26" fill="#FEFECE" height="84.3516" id="Parser" rx="3.5" ry="3.5" style="stroke:#A80036;stroke-width:1.5;" width="330" x="308" y="428"/><ellipse cx="448.25" cy="446.9688" fill="#B4A7E5" rx="11" ry="11" style="stroke:#A80036;stroke-width:1.0;"/><path d="M444.1719,442.7344 L444.1719,440.5781 L451.5625,440.5781 L451.5625,442.7344 L449.0938,442.7344 L449.0938,450.8125 L451.5625,450.8125 L451.5625,452.9688 L444.1719,452.9688 L444.1719,450.8125 L446.6406,450.8125 L446.6406,442.7344 L444.1719,442.7344 Z " fill="#000000"/><text fill="#000000" font-family="sans-serif" font-size="12" font-style="italic" lengthAdjust="spacing" textLength="40" x="469.25" y="444.1387">«trait»</text><text fill="#000000" font-family="sans-serif" font-size="12" font-style="italic" lengthAdjust="spacing" textLength="41" x="468.75" y="458.1074">Parser</text><line style="stroke:#A80036;stroke-width:1.5;" x1="309" x2="637" y1="465.9375" y2="465.9375"/><text fill="#000000" font-family="sans-serif" font-size="11" lengthAdjust="spacing" textLength="188" x="314" y="480.1479">readFile(path: Path): Task[String]</text><text fill="#000000" font-family="sans-serif" font-size="11" lengthAdjust="spacing" textLength="318" x="314" y="492.9526">loadConfiguration(program: String): Task[Configuration]</text><text fill="#000000" font-family="sans-serif" font-size="11" lengthAdjust="spacing" textLength="262" x="314" y="505.7573">checkErrors(conf: Configuration): Task[Result]</text><!--MD5=[5d0a77e8f66918aa15fe0099dd6d4ba9]
class Environment--><rect codeLine="33" fill="#FEFECE" height="71.5469" id="Environment" rx="3.5" ry="3.5" style="stroke:#A80036;stroke-width:1.5;" width="110" x="132" y="434"/><ellipse cx="147" cy="452.9688" fill="#B4A7E5" rx="11" ry="11" style="stroke:#A80036;stroke-width:1.0;"/><path d="M142.9219,448.7344 L142.9219,446.5781 L150.3125,446.5781 L150.3125,448.7344 L147.8438,448.7344 L147.8438,456.8125 L150.3125,456.8125 L150.3125,458.9688 L142.9219,458.9688 L142.9219,456.8125 L145.3906,456.8125 L145.3906,448.7344 L142.9219,448.7344 Z " fill="#000000"/><text fill="#000000" font-family="sans-serif" font-size="12" font-style="italic" lengthAdjust="spacing" textLength="40" x="180" y="450.1387">«trait»</text><text fill="#000000" font-family="sans-serif" font-size="12" font-style="italic" lengthAdjust="spacing" textLength="78" x="161" y="464.1074">Environment</text><line style="stroke:#A80036;stroke-width:1.5;" x1="133" x2="241" y1="471.9375" y2="471.9375"/><text fill="#000000" font-family="sans-serif" font-size="11" lengthAdjust="spacing" textLength="69" x="138" y="486.1479">time(): Time</text><text fill="#000000" font-family="sans-serif" font-size="11" lengthAdjust="spacing" textLength="52" x="138" y="498.9526">size(): Int</text><!--MD5=[583949b48bb58d687b700008f98c6a20]
class Virus--><rect codeLine="39" fill="#FEFECE" height="45.9375" id="Virus" rx="3.5" ry="3.5" style="stroke:#A80036;stroke-width:1.5;" width="68" x="38" y="572"/><ellipse cx="53" cy="590.9688" fill="#B4A7E5" rx="11" ry="11" style="stroke:#A80036;stroke-width:1.0;"/><path d="M48.9219,586.7344 L48.9219,584.5781 L56.3125,584.5781 L56.3125,586.7344 L53.8438,586.7344 L53.8438,594.8125 L56.3125,594.8125 L56.3125,596.9688 L48.9219,596.9688 L48.9219,594.8125 L51.3906,594.8125 L51.3906,586.7344 L48.9219,586.7344 Z " fill="#000000"/><text fill="#000000" font-family="sans-serif" font-size="12" font-style="italic" lengthAdjust="spacing" textLength="40" x="65" y="588.1387">«trait»</text><text fill="#000000" font-family="sans-serif" font-size="12" font-style="italic" lengthAdjust="spacing" textLength="31" x="69.5" y="602.1074">Virus</text><line style="stroke:#A80036;stroke-width:1.5;" x1="39" x2="105" y1="609.9375" y2="609.9375"/><!--MD5=[3915787db80ab162e3259f8f86339844]
class Structure--><rect codeLine="40" fill="#FEFECE" height="45.9375" id="Structure" rx="3.5" ry="3.5" style="stroke:#A80036;stroke-width:1.5;" width="91" x="141.5" y="572"/><ellipse cx="156.5" cy="590.9688" fill="#B4A7E5" rx="11" ry="11" style="stroke:#A80036;stroke-width:1.0;"/><path d="M152.4219,586.7344 L152.4219,584.5781 L159.8125,584.5781 L159.8125,586.7344 L157.3438,586.7344 L157.3438,594.8125 L159.8125,594.8125 L159.8125,596.9688 L152.4219,596.9688 L152.4219,594.8125 L154.8906,594.8125 L154.8906,586.7344 L152.4219,586.7344 Z " fill="#000000"/><text fill="#000000" font-family="sans-serif" font-size="12" font-style="italic" lengthAdjust="spacing" textLength="40" x="180" y="588.1387">«trait»</text><text fill="#000000" font-family="sans-serif" font-size="12" font-style="italic" lengthAdjust="spacing" textLength="59" x="170.5" y="602.1074">Structure</text><line style="stroke:#A80036;stroke-width:1.5;" x1="142.5" x2="231.5" y1="609.9375" y2="609.9375"/><!--MD5=[be996cdb8e6bf2fc7cb89c555f2cd144]
class Entity--><rect codeLine="41" fill="#FEFECE" height="45.9375" id="Entity" rx="3.5" ry="3.5" style="stroke:#A80036;stroke-width:1.5;" width="68" x="268" y="572"/><ellipse cx="283" cy="590.9688" fill="#B4A7E5" rx="11" ry="11" style="stroke:#A80036;stroke-width:1.0;"/><path d="M278.9219,586.7344 L278.9219,584.5781 L286.3125,584.5781 L286.3125,586.7344 L283.8438,586.7344 L283.8438,594.8125 L286.3125,594.8125 L286.3125,596.9688 L278.9219,596.9688 L278.9219,594.8125 L281.3906,594.8125 L281.3906,586.7344 L278.9219,586.7344 Z " fill="#000000"/><text fill="#000000" font-family="sans-serif" font-size="12" font-style="italic" lengthAdjust="spacing" textLength="40" x="295" y="588.1387">«trait»</text><text fill="#000000" font-family="sans-serif" font-size="12" font-style="italic" lengthAdjust="spacing" textLength="35" x="297.5" y="602.1074">Entity</text><line style="stroke:#A80036;stroke-width:1.5;" x1="269" x2="335" y1="609.9375" y2="609.9375"/><!--MD5=[5755c8df24356e9428b44920262da903]
link Environment to Virus--><path codeLine="45" d="M154.05,506.25 C134.27,527.4 109.72,553.66 92.65,571.91 " fill="none" id="Environment-Virus" style="stroke:#454645;stroke-width:1.0;"/><!--MD5=[b712e0bef1368955217c911e44191a80]
link Environment to Structure--><path codeLine="46" d="M187,506.25 C187,527.4 187,553.66 187,571.91 " fill="none" id="Environment-Structure" style="stroke:#454645;stroke-width:1.0;"/><!--MD5=[67e328040028ba60796c6a1aae205651]
link Environment to Entity--><path codeLine="47" d="M219.95,506.25 C239.73,527.4 264.28,553.66 281.35,571.91 " fill="none" id="Environment-Entity" style="stroke:#454645;stroke-width:1.0;"/><!--MD5=[949f1fcec0ba7c62762cb8105ff9f66e]
reverse link Boundary to Engine--><path codeLine="49" d="M279.48,121.55 C246.49,177.51 198.15,259.51 172.85,302.42 " fill="none" id="Boundary-backto-Engine" style="stroke:#454645;stroke-width:1.0;stroke-dasharray:7.0,7.0;"/><polygon fill="#454645" points="282.03,117.23,274.0058,122.9407,279.4849,121.5338,280.8919,127.0129,282.03,117.23" style="stroke:#454645;stroke-width:1.0;"/><!--MD5=[817029c390b635902b3d220e50caad6e]
reverse link Boundary to Launcher--><path codeLine="50" d="M358.4,121.59 C372.87,140.67 388.29,161.02 400.32,176.89 " fill="none" id="Boundary-backto-Launcher" style="stroke:#454645;stroke-width:1.0;stroke-dasharray:7.0,7.0;"/><polygon fill="#454645" points="355.14,117.28,357.3784,126.8711,358.156,121.268,363.7591,122.0455,355.14,117.28" style="stroke:#454645;stroke-width:1.0;"/><!--MD5=[7fa192a5cadff1e06104c2d1af49c6c5]
link Launcher to Loader--><path codeLine="52" d="M433.83,236.14 C440.55,252.43 449.08,273.07 456.46,290.94 " fill="none" id="Launcher-to-Loader" style="stroke:#454645;stroke-width:1.0;stroke-dasharray:7.0,7.0;"/><polygon fill="#454645" points="458.5,295.9,458.7459,286.0542,456.584,291.2817,451.3566,289.1198,458.5,295.9" style="stroke:#454645;stroke-width:1.0;"/><!--MD5=[acddb9202b17db0601a5d70b322a3357]
link Loader to Parser--><path codeLine="54" d="M473,368.02 C473,384.57 473,404.56 473,422.36 " fill="none" id="Loader-to-Parser" style="stroke:#454645;stroke-width:1.0;stroke-dasharray:7.0,7.0;"/><polygon fill="#454645" points="473,427.81,477,418.81,473,422.81,469,418.81,473,427.81" style="stroke:#454645;stroke-width:1.0;"/><!--MD5=[1ac1fac28c7062ed32ea6dd4232491e9]
link Engine to Environment--><path codeLine="56" d="M162.5,361.51 C166.94,380.98 172.88,407.06 177.8,428.65 " fill="none" id="Engine-to-Environment" style="stroke:#454645;stroke-width:1.0;stroke-dasharray:7.0,7.0;"/><polygon fill="#454645" points="178.97,433.75,180.8625,424.0847,177.8551,428.8759,173.0639,425.8685,178.97,433.75" style="stroke:#454645;stroke-width:1.0;"/><!--MD5=[a6440a9b4e0e2e2a2aa2b6351013b018]
link Loader to Environment--><path codeLine="58" d="M399.35,368.02 C352.08,390.5 291.47,419.32 247.12,440.41 " fill="none" id="Loader-to-Environment" style="stroke:#454645;stroke-width:1.0;stroke-dasharray:7.0,7.0;"/><polygon fill="#454645" points="242.33,442.69,252.1758,442.4441,246.8469,440.5459,248.7452,435.217,242.33,442.69" style="stroke:#454645;stroke-width:1.0;"/><!--MD5=[6562a93129ec011e286c8e21347e03cd]
@startuml

!theme vibrant

interface Boundary <<trait>> {
  init(): Task[Unit]
  start(): Task[Unit]
  events(): Observable[Event]
  consume(env: Environment): Task[Unit]
  stop(): Task[Unit]
}

interface Engine <<trait>> {
  startSimulationLoop(env: Environment): Task[Unit]
}

interface Launcher <<trait>> {
  launch(): Task[Unit]
}

interface Loader <<trait>> {
  parseConfiguration(path: Path): Task[Result]
  startEngine(conf: Configuration): Task[Unit]
}


interface Parser <<trait>> {
  readFile(path: Path): Task[String]
  loadConfiguration(program: String): Task[Configuration]
  checkErrors(conf: Configuration): Task[Result]
}


interface Environment <<trait>> {
  time(): Time
  size(): Int
}


interface Virus <<trait>>
interface Structure <<trait>>
interface Entity <<trait>>

hide fields

Environment - - Virus
Environment - - Structure
Environment - - Entity

Boundary <.. Engine
Boundary <.. Launcher

Launcher ..> Loader

Loader ..> Parser

Engine ..> Environment

Loader ..> Environment

@enduml

@startuml

skinparam BackgroundColor FFFFFF
skinparam shadowing false
skinparam RoundCorner 7
skinparam ArrowColor 454645
skinparam FontColor 454645
skinparam SequenceLifeLineBorderColor 696969
skinparam SequenceGroupHeaderFontColor 454645
skinparam SequenceGroupFontColor 696969
skinparam SequenceGroupBorderColor 696969
skinparam SequenceGroupBorderThickness 1

skinparam sequenceDivider {
    BorderColor 454645
    BorderThickness 1
    FontColor 454645
}

skinparam participant {
    BackgroundColor FF6347
    BorderColor FF6F61
    FontColor FFFFFF
}

skinparam database {
    BackgroundColor 00FFFF
    BorderColor 454645
    FontColor 454645
}

skinparam entity {
    BackgroundColor FFE552
    BorderColor 454645
    FontColor 454645
}

skinparam note {
    BackgroundColor 7FFFD4
    BorderColor 7FFFD4
    FontColor 454645
}

skinparam actor {
    BackgroundColor 454645
    BorderColor 454645
    FontColor 454645
}

skinparam boundary {
    BackgroundColor FFE552
    BorderColor 454645
    FontColor 454645
}

skinparam control {
    BackgroundColor FFE552
    BorderColor 454645
    FontColor 454645
}

skinparam collections {
    BackgroundColor FF6347
    BorderColor FFFFFF
    FontColor 454645
}

skinparam queue {
    BackgroundColor FF6347
    BorderColor FFF
    FontColor FFF
    BorderThickness 1.5
}

interface Boundary <<trait>> {
  init(): Task[Unit]
  start(): Task[Unit]
  events(): Observable[Event]
  consume(env: Environment): Task[Unit]
  stop(): Task[Unit]
}

interface Engine <<trait>> {
  startSimulationLoop(env: Environment): Task[Unit]
}

interface Launcher <<trait>> {
  launch(): Task[Unit]
}

interface Loader <<trait>> {
  parseConfiguration(path: Path): Task[Result]
  startEngine(conf: Configuration): Task[Unit]
}


interface Parser <<trait>> {
  readFile(path: Path): Task[String]
  loadConfiguration(program: String): Task[Configuration]
  checkErrors(conf: Configuration): Task[Result]
}


interface Environment <<trait>> {
  time(): Time
  size(): Int
}


interface Virus <<trait>>
interface Structure <<trait>>
interface Entity <<trait>>

hide fields

Environment - - Virus
Environment - - Structure
Environment - - Entity

Boundary <.. Engine
Boundary <.. Launcher

Launcher ..> Loader

Loader ..> Parser

Engine ..> Environment

Loader ..> Environment

@enduml

PlantUML version 1.2021.13(Mon Nov 01 12:38:45 CET 2021)
(GPL source distribution)
Java Runtime: OpenJDK Runtime Environment
JVM: OpenJDK 64-Bit Server VM
Default Encoding: UTF-8
Language: en
Country: GB
--></g></svg>