<?xml version="1.0" encoding="UTF-8" standalone="no"?><svg xmlns="http://www.w3.org/2000/svg" xmlns:xlink="http://www.w3.org/1999/xlink" contentScriptType="application/ecmascript" contentStyleType="text/css" height="459px" preserveAspectRatio="none" style="width:553px;height:459px;background:#FFFFFF;" version="1.1" viewBox="0 0 553 459" width="553px" zoomAndPan="magnify"><defs/><g><!--MD5=[be996cdb8e6bf2fc7cb89c555f2cd144]
class Entity--><rect codeLine="3" fill="#FEFECE" height="83.5444" id="Entity" rx="3.5" ry="3.5" style="stroke:#A80036;stroke-width:1.5;" width="121" x="226.5" y="369"/><ellipse cx="268.05" cy="387.7988" fill="#B4A7E5" rx="11" ry="11" style="stroke:#A80036;stroke-width:1.0;"/><path d="M264.3469,382.0957 L271.9563,382.0957 L271.9563,383.9863 L269.3781,383.9863 L269.3781,391.4082 L271.9563,391.4082 L271.9563,393.2988 L264.3469,393.2988 L264.3469,391.4082 L266.9406,391.4082 L266.9406,383.9863 L264.3469,383.9863 L264.3469,382.0957 Z " fill="#000000"/><text fill="#000000" font-family="sans-serif" font-size="12" font-style="italic" lengthAdjust="spacing" textLength="34" x="285.95" y="385.2559">«trait»</text><text fill="#000000" font-family="sans-serif" font-size="12" font-style="italic" lengthAdjust="spacing" textLength="30" x="287.95" y="399.0547">Entity</text><line style="stroke:#A80036;stroke-width:1.5;" x1="227.5" x2="346.5" y1="406.5977" y2="406.5977"/><text fill="#000000" font-family="sans-serif" font-size="11" lengthAdjust="spacing" textLength="26" x="232.5" y="420.9155">id: Int</text><text fill="#000000" font-family="sans-serif" font-size="11" lengthAdjust="spacing" textLength="36" x="232.5" y="433.5645">age: Int</text><text fill="#000000" font-family="sans-serif" font-size="11" lengthAdjust="spacing" textLength="109" x="232.5" y="446.2134">homePosition: Position</text><!--MD5=[309007df238629c85e246765b8ffc921]
class Moving--><rect codeLine="9" fill="#FEFECE" height="70.8955" id="Moving" rx="3.5" ry="3.5" style="stroke:#A80036;stroke-width:1.5;" width="166" x="7" y="238"/><ellipse cx="65.75" cy="256.7988" fill="#B4A7E5" rx="11" ry="11" style="stroke:#A80036;stroke-width:1.0;"/><path d="M62.0469,251.0957 L69.6563,251.0957 L69.6563,252.9863 L67.0781,252.9863 L67.0781,260.4082 L69.6563,260.4082 L69.6563,262.2988 L62.0469,262.2988 L62.0469,260.4082 L64.6406,260.4082 L64.6406,252.9863 L62.0469,252.9863 L62.0469,251.0957 Z " fill="#000000"/><text fill="#000000" font-family="sans-serif" font-size="12" font-style="italic" lengthAdjust="spacing" textLength="34" x="89.25" y="254.2559">«trait»</text><text fill="#000000" font-family="sans-serif" font-size="12" font-style="italic" lengthAdjust="spacing" textLength="40" x="86.25" y="268.0547">Moving</text><line style="stroke:#A80036;stroke-width:1.5;" x1="8" x2="172" y1="275.5977" y2="275.5977"/><text fill="#000000" font-family="sans-serif" font-size="11" lengthAdjust="spacing" textLength="81" x="13" y="289.9155">position: Position</text><text fill="#000000" font-family="sans-serif" font-size="11" lengthAdjust="spacing" textLength="154" x="13" y="302.5645">movementGoal: MovementGoal</text><!--MD5=[f7e934452a7b84a2aefc11e8c4d740f8]
class Infectious--><rect codeLine="14" fill="#FEFECE" height="58.2466" id="Infectious" rx="3.5" ry="3.5" style="stroke:#A80036;stroke-width:1.5;" width="137" x="279.5" y="244.5"/><ellipse cx="318.35" cy="263.2988" fill="#B4A7E5" rx="11" ry="11" style="stroke:#A80036;stroke-width:1.0;"/><path d="M314.6469,257.5957 L322.2563,257.5957 L322.2563,259.4863 L319.6781,259.4863 L319.6781,266.9082 L322.2563,266.9082 L322.2563,268.7988 L314.6469,268.7988 L314.6469,266.9082 L317.2406,266.9082 L317.2406,259.4863 L314.6469,259.4863 L314.6469,257.5957 Z " fill="#000000"/><text fill="#000000" font-family="sans-serif" font-size="12" font-style="italic" lengthAdjust="spacing" textLength="34" x="346.65" y="260.7559">«trait»</text><text fill="#000000" font-family="sans-serif" font-size="12" font-style="italic" lengthAdjust="spacing" textLength="52" x="337.65" y="274.5547">Infectious</text><line style="stroke:#A80036;stroke-width:1.5;" x1="280.5" x2="415.5" y1="282.0977" y2="282.0977"/><text fill="#000000" font-family="sans-serif" font-size="11" lengthAdjust="spacing" textLength="125" x="285.5" y="296.4155">infection: Option[Infection]</text><!--MD5=[dbf9b3d856455a120e31845993b1aef1]
class Masquerable--><rect codeLine="18" fill="#FEFECE" height="58.2466" id="Masquerable" rx="3.5" ry="3.5" style="stroke:#A80036;stroke-width:1.5;" width="104" x="165" y="113.5"/><ellipse cx="180" cy="132.2988" fill="#B4A7E5" rx="11" ry="11" style="stroke:#A80036;stroke-width:1.0;"/><path d="M176.2969,126.5957 L183.9063,126.5957 L183.9063,128.4863 L181.3281,128.4863 L181.3281,135.9082 L183.9063,135.9082 L183.9063,137.7988 L176.2969,137.7988 L176.2969,135.9082 L178.8906,135.9082 L178.8906,128.4863 L176.2969,128.4863 L176.2969,126.5957 Z " fill="#000000"/><text fill="#000000" font-family="sans-serif" font-size="12" font-style="italic" lengthAdjust="spacing" textLength="34" x="213" y="129.7559">«trait»</text><text fill="#000000" font-family="sans-serif" font-size="12" font-style="italic" lengthAdjust="spacing" textLength="72" x="194" y="143.5547">Masquerable</text><line style="stroke:#A80036;stroke-width:1.5;" x1="166" x2="268" y1="151.0977" y2="151.0977"/><text fill="#000000" font-family="sans-serif" font-size="11" lengthAdjust="spacing" textLength="90" x="171" y="165.4155">hasMask: Boolean</text><!--MD5=[432e2974cba01aedcbf4a6f179e31df8]
class Living--><rect codeLine="22" fill="#FEFECE" height="70.8955" id="Living" rx="3.5" ry="3.5" style="stroke:#A80036;stroke-width:1.5;" width="104" x="304" y="107"/><ellipse cx="336.55" cy="125.7988" fill="#B4A7E5" rx="11" ry="11" style="stroke:#A80036;stroke-width:1.0;"/><path d="M332.8469,120.0957 L340.4563,120.0957 L340.4563,121.9863 L337.8781,121.9863 L337.8781,129.4082 L340.4563,129.4082 L340.4563,131.2988 L332.8469,131.2988 L332.8469,129.4082 L335.4406,129.4082 L335.4406,121.9863 L332.8469,121.9863 L332.8469,120.0957 Z " fill="#000000"/><text fill="#000000" font-family="sans-serif" font-size="12" font-style="italic" lengthAdjust="spacing" textLength="34" x="353.95" y="123.2559">«trait»</text><text fill="#000000" font-family="sans-serif" font-size="12" font-style="italic" lengthAdjust="spacing" textLength="33" x="354.45" y="137.0547">Living</text><line style="stroke:#A80036;stroke-width:1.5;" x1="305" x2="407" y1="144.5977" y2="144.5977"/><text fill="#000000" font-family="sans-serif" font-size="11" lengthAdjust="spacing" textLength="69" x="310" y="158.9155">health: Double</text><text fill="#000000" font-family="sans-serif" font-size="11" lengthAdjust="spacing" textLength="92" x="310" y="171.5645">maxHealth: Double</text><!--MD5=[b37b852b37d1895c6b6680c1c0097a6f]
class Immune--><rect codeLine="27" fill="#FEFECE" height="58.2466" id="Immune" rx="3.5" ry="3.5" style="stroke:#A80036;stroke-width:1.5;" width="95" x="451.5" y="244.5"/><ellipse cx="475.05" cy="263.2988" fill="#B4A7E5" rx="11" ry="11" style="stroke:#A80036;stroke-width:1.0;"/><path d="M471.3469,257.5957 L478.9563,257.5957 L478.9563,259.4863 L476.3781,259.4863 L476.3781,266.9082 L478.9563,266.9082 L478.9563,268.7988 L471.3469,268.7988 L471.3469,266.9082 L473.9406,266.9082 L473.9406,259.4863 L471.3469,259.4863 L471.3469,257.5957 Z " fill="#000000"/><text fill="#000000" font-family="sans-serif" font-size="12" font-style="italic" lengthAdjust="spacing" textLength="34" x="495.95" y="260.7559">«trait»</text><text fill="#000000" font-family="sans-serif" font-size="12" font-style="italic" lengthAdjust="spacing" textLength="44" x="490.95" y="274.5547">Immune</text><line style="stroke:#A80036;stroke-width:1.5;" x1="452.5" x2="545.5" y1="282.0977" y2="282.0977"/><text fill="#000000" font-family="sans-serif" font-size="11" lengthAdjust="spacing" textLength="83" x="457.5" y="296.4155">immunity: Double</text><!--MD5=[05230c18362c8242ac0df5df33f4682d]
class SimulationEntity--><rect codeLine="31" fill="#FEFECE" height="40" id="SimulationEntity" rx="3.5" ry="3.5" style="stroke:#A80036;stroke-width:1.5;" width="120" x="157" y="7"/><ellipse cx="172" cy="23" fill="#ADD1B2" rx="11" ry="11" style="stroke:#A80036;stroke-width:1.0;"/><path d="M169.6563,22.8438 Q169.6563,24.7188 170.2344,25.7344 Q170.8125,26.7344 171.9688,26.7344 Q173.3125,26.7344 173.9688,24.7188 L176.2344,25.1406 Q175.125,28.6719 171.9531,28.6719 Q169.6094,28.6719 168.3906,27.1875 Q167.1719,25.7031 167.1719,22.8438 Q167.1719,17.125 171.875,17.125 Q173.4219,17.125 174.4531,17.9375 Q175.5,18.75 176,20.3594 L173.7344,20.9063 Q173.5,20.0313 173.0156,19.5469 Q172.5313,19.0469 171.9063,19.0469 Q169.6563,19.0469 169.6563,22.8438 Z " fill="#000000"/><text fill="#000000" font-family="sans-serif" font-size="12" lengthAdjust="spacing" textLength="88" x="186" y="27.3564">SimulationEntity</text><line style="stroke:#A80036;stroke-width:1.5;" x1="158" x2="276" y1="39" y2="39"/><!--MD5=[6c8eef335ccf48cb03337366f2f91b47]
link Moving to Entity--><path codeLine="33" d="M140.22,309.04 C161.5,323.68 186.78,341.07 210.31,357.25 " fill="none" id="Moving-to-Entity" style="stroke:#454645;stroke-width:1.0;"/><polygon fill="none" points="214.54,351.66,227.05,368.76,206.6,363.2,214.54,351.66" style="stroke:#454645;stroke-width:1.0;"/><!--MD5=[d3a38c17e6bf21934b7bf9954c02426f]
link Masquerable to Entity--><path codeLine="34" d="M224.36,171.52 C235.37,213.44 256.4,293.52 271.04,349.26 " fill="none" id="Masquerable-to-Entity" style="stroke:#454645;stroke-width:1.0;"/><polygon fill="none" points="277.9,347.81,276.21,368.94,264.36,351.37,277.9,347.81" style="stroke:#454645;stroke-width:1.0;"/><!--MD5=[6843805b3b95e2afdf5c6100de38d9a8]
link Infectious to Entity--><path codeLine="35" d="M335.36,302.58 C329.1,316.49 321.28,333.84 313.78,350.52 " fill="none" id="Infectious-to-Entity" style="stroke:#454645;stroke-width:1.0;"/><polygon fill="none" points="320.12,353.48,305.53,368.84,307.35,347.73,320.12,353.48" style="stroke:#454645;stroke-width:1.0;"/><!--MD5=[c3993bb52546be535bc2a5ee234220c8]
link Living to Immune--><path codeLine="36" d="M394.32,178.07 C412.29,194.28 433.85,213.73 452.72,230.75 " fill="none" id="Living-to-Immune" style="stroke:#454645;stroke-width:1.0;"/><polygon fill="none" points="457.64,225.76,467.8,244.36,448.26,236.16,457.64,225.76" style="stroke:#454645;stroke-width:1.0;"/><!--MD5=[ab6f5a556ac9c9902d9bfd3beb371ef7]
link Living to Infectious--><path codeLine="37" d="M353.86,178.07 C352.98,192.25 351.94,208.92 350.99,224.27 " fill="none" id="Living-to-Infectious" style="stroke:#454645;stroke-width:1.0;"/><polygon fill="none" points="357.97,224.83,349.75,244.36,344,223.96,357.97,224.83" style="stroke:#454645;stroke-width:1.0;"/><!--MD5=[5567ee2b5642886bd16456239ac0a44b]
link Immune to Entity--><path codeLine="38" d="M455.07,302.58 C429,319.24 395.18,340.85 364.73,360.32 " fill="none" id="Immune-to-Entity" style="stroke:#454645;stroke-width:1.0;"/><polygon fill="none" points="368.37,366.3,347.75,371.17,360.83,354.5,368.37,366.3" style="stroke:#454645;stroke-width:1.0;"/><!--MD5=[214d09df086b1706beeb35f68cafe5ab]
link SimulationEntity to Moving--><path codeLine="39" d="M196.17,47.05 C180.79,62.06 160.3,84.21 147,107 C126.7,141.77 112.14,184.89 102.82,218.39 " fill="none" id="SimulationEntity-to-Moving" style="stroke:#454645;stroke-width:1.0;stroke-dasharray:7.0,7.0;"/><polygon fill="none" points="109.56,220.3,97.69,237.85,96.02,216.73,109.56,220.3" style="stroke:#454645;stroke-width:1.0;"/><!--MD5=[dc931452025abf90648da2a871e04ba5]
link SimulationEntity to Living--><path codeLine="40" d="M240.58,47.25 C256.35,60.13 277.82,77.67 297.98,94.12 " fill="none" id="SimulationEntity-to-Living" style="stroke:#454645;stroke-width:1.0;stroke-dasharray:7.0,7.0;"/><polygon fill="none" points="302.66,88.91,313.72,106.98,293.8,99.75,302.66,88.91" style="stroke:#454645;stroke-width:1.0;"/><!--MD5=[3edd99db6c37f11755d112aadee6e067]
link SimulationEntity to Masquerable--><path codeLine="41" d="M217,47.25 C217,59.83 217,76.86 217,92.98 " fill="none" id="SimulationEntity-to-Masquerable" style="stroke:#454645;stroke-width:1.0;stroke-dasharray:7.0,7.0;"/><polygon fill="none" points="224,93.2,217,113.2,210,93.2,224,93.2" style="stroke:#454645;stroke-width:1.0;"/><!--MD5=[3e2c30bb6cdc78d81b52b890f2ed90eb]
@startuml
!theme vibrant

interface Entity <<trait>>{
id: Int
age: Int
homePosition: Position
}

interface Moving <<trait>>{
position: Position
movementGoal: MovementGoal
}

interface Infectious <<trait>>{
infection: Option[Infection]
}

interface Masquerable <<trait>>{
hasMask: Boolean
}

interface Living <<trait>>{
health: Double
maxHealth: Double
}

interface Immune <<trait>>{
immunity: Double
}

class SimulationEntity

Moving - -|> Entity
Masquerable - -|> Entity
Infectious - -|> Entity
Living - -|> Immune
Living - -|> Infectious
Immune - -|> Entity
SimulationEntity ..|> Moving
SimulationEntity ..|> Living
SimulationEntity ..|> Masquerable

hide methods

@enduml

@startuml
skinparam BackgroundColor FFFFFF
skinparam shadowing false
skinparam RoundCorner 7
skinparam ArrowColor 454645
skinparam FontColor 454645
skinparam SequenceLifeLineBorderColor 696969
skinparam SequenceGroupHeaderFontColor 454645
skinparam SequenceGroupFontColor 696969
skinparam SequenceGroupBorderColor 696969
skinparam SequenceGroupBorderThickness 1

skinparam sequenceDivider {
    BorderColor 454645
    BorderThickness 1
    FontColor 454645
}

skinparam participant {
    BackgroundColor FF6347
    BorderColor FF6F61
    FontColor FFFFFF
}

skinparam database {
    BackgroundColor 00FFFF
    BorderColor 454645
    FontColor 454645
}

skinparam entity {
    BackgroundColor FFE552
    BorderColor 454645
    FontColor 454645
}

skinparam note {
    BackgroundColor 7FFFD4
    BorderColor 7FFFD4
    FontColor 454645
}

skinparam actor {
    BackgroundColor 454645
    BorderColor 454645
    FontColor 454645
}

skinparam boundary {
    BackgroundColor FFE552
    BorderColor 454645
    FontColor 454645
}

skinparam control {
    BackgroundColor FFE552
    BorderColor 454645
    FontColor 454645
}

skinparam collections {
    BackgroundColor FF6347
    BorderColor FFFFFF
    FontColor 454645
}

skinparam queue {
    BackgroundColor FF6347
    BorderColor FFF
    FontColor FFF
    BorderThickness 1.5
}

interface Entity <<trait>>{
id: Int
age: Int
homePosition: Position
}

interface Moving <<trait>>{
position: Position
movementGoal: MovementGoal
}

interface Infectious <<trait>>{
infection: Option[Infection]
}

interface Masquerable <<trait>>{
hasMask: Boolean
}

interface Living <<trait>>{
health: Double
maxHealth: Double
}

interface Immune <<trait>>{
immunity: Double
}

class SimulationEntity

Moving - -|> Entity
Masquerable - -|> Entity
Infectious - -|> Entity
Living - -|> Immune
Living - -|> Infectious
Immune - -|> Entity
SimulationEntity ..|> Moving
SimulationEntity ..|> Living
SimulationEntity ..|> Masquerable

hide methods

@enduml

PlantUML version 1.2021.13(Mon Nov 01 12:38:45 CET 2021)
(GPL source distribution)
Java Runtime: OpenJDK Runtime Environment
JVM: OpenJDK 64-Bit Server VM
Default Encoding: UTF-8
Language: en
Country: US
--></g></svg>