<?xml version="1.0" encoding="UTF-8" standalone="no"?><svg xmlns="http://www.w3.org/2000/svg" xmlns:xlink="http://www.w3.org/1999/xlink" contentScriptType="application/ecmascript" contentStyleType="text/css" height="642px" preserveAspectRatio="none" style="width:654px;height:642px;background:#FFFFFF;" version="1.1" viewBox="0 0 654 642" width="654px" zoomAndPan="magnify"><defs/><g><ellipse cx="322" cy="20" fill="#000000" rx="10" ry="10" style="stroke:none;stroke-width:1.0;"/><rect fill="#FEFECE" height="36.3441" rx="12.5" ry="12.5" style="stroke:#A80036;stroke-width:1.5;" width="92" x="276" y="50"/><text fill="#000000" font-family="sans-serif" font-size="12" lengthAdjust="spacing" textLength="72" x="286" y="72.8281">setup engine</text><rect fill="#000000" height="6" rx="2.5" ry="2.5" style="stroke:#000000;stroke-width:1.0;" width="632.5" x="11" y="106.3441"/><rect fill="#FEFECE" height="36.3441" rx="12.5" ry="12.5" style="stroke:#A80036;stroke-width:1.5;" width="168" x="60.5" y="301.3765"/><text fill="#000000" font-family="sans-serif" font-size="12" lengthAdjust="spacing" textLength="148" x="70.5" y="324.2045">ottieni eventi dai boundary</text><rect fill="#FEFECE" height="36.3441" rx="12.5" ry="12.5" style="stroke:#A80036;stroke-width:1.5;" width="243" x="23" y="357.7206"/><text fill="#000000" font-family="sans-serif" font-size="12" lengthAdjust="spacing" textLength="223" x="33" y="380.5487">inserisci gli eventi nella coda dell'engine</text><rect fill="#FEFECE" height="36.3441" rx="12.5" ry="12.5" style="stroke:#A80036;stroke-width:1.5;" width="278" x="318.5" y="132.3441"/><text fill="#000000" font-family="sans-serif" font-size="12" lengthAdjust="spacing" textLength="258" x="328.5" y="155.1722">prendi maxEventPerIteration eventi dalla coda</text><rect fill="#FEFECE" height="36.3441" rx="12.5" ry="12.5" style="stroke:#A80036;stroke-width:1.5;" width="180" x="367.5" y="188.6882"/><text fill="#000000" font-family="sans-serif" font-size="12" lengthAdjust="spacing" textLength="160" x="377.5" y="211.5163">ottieni environment corrente</text><rect fill="#FEFECE" height="36.3441" style="stroke:#A80036;stroke-width:1.5;" width="91" x="412" y="245.0323"/><text fill="#000000" font-family="sans-serif" font-size="12" lengthAdjust="spacing" textLength="71" x="422" y="267.8604">Environment</text><rect fill="#FEFECE" height="36.3441" rx="12.5" ry="12.5" style="stroke:#A80036;stroke-width:1.5;" width="234" x="340.5" y="301.3765"/><text fill="#000000" font-family="sans-serif" font-size="12" lengthAdjust="spacing" textLength="214" x="350.5" y="324.2045">gestisci eventi con le logiche associate</text><rect fill="#FEFECE" height="36.3441" style="stroke:#A80036;stroke-width:1.5;" width="272" x="321.5" y="357.7206"/><text fill="#000000" font-family="sans-serif" font-size="12" lengthAdjust="spacing" textLength="249" x="331.5" y="380.5487">Environment [aggiornato rispetto agli eventi]</text><rect fill="#FEFECE" height="36.3441" rx="12.5" ry="12.5" style="stroke:#A80036;stroke-width:1.5;" width="215" x="350" y="414.0647"/><text fill="#000000" font-family="sans-serif" font-size="12" lengthAdjust="spacing" textLength="195" x="360" y="436.8928">esegui le logiche di aggiornamento</text><rect fill="#FEFECE" height="36.3441" style="stroke:#A80036;stroke-width:1.5;" width="348" x="283.5" y="470.4088"/><text fill="#000000" font-family="sans-serif" font-size="12" lengthAdjust="spacing" textLength="325" x="293.5" y="493.2369">Environment [aggiornato rispetto agli eventi e alle logiche]</text><rect fill="#FEFECE" height="36.3441" rx="12.5" ry="12.5" style="stroke:#A80036;stroke-width:1.5;" width="254" x="330.5" y="526.7529"/><text fill="#000000" font-family="sans-serif" font-size="12" lengthAdjust="spacing" textLength="234" x="340.5" y="549.581">spedisci il nuovo environment ai boundary</text><rect fill="#000000" height="6" rx="2.5" ry="2.5" style="stroke:#000000;stroke-width:1.0;" width="632.5" x="11" y="583.097"/><ellipse cx="322" cy="620.097" fill="#FFFFFF" rx="11" ry="11" style="stroke:#000000;stroke-width:1.0;"/><ellipse cx="322" cy="620.097" fill="#000000" rx="6" ry="6" style="stroke:#7F7F7F;stroke-width:1.0;"/><line style="stroke:#454645;stroke-width:1.5;" x1="322" x2="322" y1="30" y2="50"/><polygon fill="#454645" points="318,40,322,50,326,40,322,44" style="stroke:#454645;stroke-width:1.0;"/><line style="stroke:#454645;stroke-width:1.5;" x1="144.5" x2="144.5" y1="337.7206" y2="357.7206"/><polygon fill="#454645" points="140.5,347.7206,144.5,357.7206,148.5,347.7206,144.5,351.7206" style="stroke:#454645;stroke-width:1.0;"/><line style="stroke:#454645;stroke-width:1.5;" x1="457.5" x2="457.5" y1="168.6882" y2="188.6882"/><polygon fill="#454645" points="453.5,178.6882,457.5,188.6882,461.5,178.6882,457.5,182.6882" style="stroke:#454645;stroke-width:1.0;"/><line style="stroke:#454645;stroke-width:1.5;" x1="457.5" x2="457.5" y1="225.0323" y2="245.0323"/><polygon fill="#454645" points="453.5,235.0323,457.5,245.0323,461.5,235.0323,457.5,239.0323" style="stroke:#454645;stroke-width:1.0;"/><line style="stroke:#454645;stroke-width:1.5;" x1="457.5" x2="457.5" y1="281.3765" y2="301.3765"/><polygon fill="#454645" points="453.5,291.3765,457.5,301.3765,461.5,291.3765,457.5,295.3765" style="stroke:#454645;stroke-width:1.0;"/><line style="stroke:#454645;stroke-width:1.5;" x1="457.5" x2="457.5" y1="337.7206" y2="357.7206"/><polygon fill="#454645" points="453.5,347.7206,457.5,357.7206,461.5,347.7206,457.5,351.7206" style="stroke:#454645;stroke-width:1.0;"/><line style="stroke:#454645;stroke-width:1.5;" x1="457.5" x2="457.5" y1="394.0647" y2="414.0647"/><polygon fill="#454645" points="453.5,404.0647,457.5,414.0647,461.5,404.0647,457.5,408.0647" style="stroke:#454645;stroke-width:1.0;"/><line style="stroke:#454645;stroke-width:1.5;" x1="457.5" x2="457.5" y1="450.4088" y2="470.4088"/><polygon fill="#454645" points="453.5,460.4088,457.5,470.4088,461.5,460.4088,457.5,464.4088" style="stroke:#454645;stroke-width:1.0;"/><line style="stroke:#454645;stroke-width:1.5;" x1="457.5" x2="457.5" y1="506.7529" y2="526.7529"/><polygon fill="#454645" points="453.5,516.7529,457.5,526.7529,461.5,516.7529,457.5,520.7529" style="stroke:#454645;stroke-width:1.0;"/><line style="stroke:#454645;stroke-width:1.5;" x1="144.5" x2="144.5" y1="112.3441" y2="301.3765"/><polygon fill="#454645" points="140.5,291.3765,144.5,301.3765,148.5,291.3765,144.5,295.3765" style="stroke:#454645;stroke-width:1.0;"/><line style="stroke:#454645;stroke-width:1.5;" x1="457.5" x2="457.5" y1="112.3441" y2="132.3441"/><polygon fill="#454645" points="453.5,122.3441,457.5,132.3441,461.5,122.3441,457.5,126.3441" style="stroke:#454645;stroke-width:1.0;"/><line style="stroke:#454645;stroke-width:1.5;" x1="144.5" x2="144.5" y1="394.0647" y2="583.097"/><polygon fill="#454645" points="140.5,573.097,144.5,583.097,148.5,573.097,144.5,577.097" style="stroke:#454645;stroke-width:1.0;"/><line style="stroke:#454645;stroke-width:1.5;" x1="457.5" x2="457.5" y1="563.097" y2="583.097"/><polygon fill="#454645" points="453.5,573.097,457.5,583.097,461.5,573.097,457.5,577.097" style="stroke:#454645;stroke-width:1.0;"/><line style="stroke:#454645;stroke-width:1.5;" x1="322" x2="322" y1="86.3441" y2="106.3441"/><polygon fill="#454645" points="318,96.3441,322,106.3441,326,96.3441,322,100.3441" style="stroke:#454645;stroke-width:1.0;"/><line style="stroke:#454645;stroke-width:1.5;" x1="322" x2="322" y1="589.097" y2="609.097"/><polygon fill="#454645" points="318,599.097,322,609.097,326,599.097,322,603.097" style="stroke:#454645;stroke-width:1.0;"/><!--MD5=[a1d6466229561d497782a0a226204a43]
@startuml
!theme vibrant

start
:setup engine;
fork
:ottieni eventi dai boundary;
:inserisci gli eventi nella coda dell'engine;
fork again
:prendi maxEventPerIteration eventi dalla coda;
:ottieni environment corrente;
:Environment]
:gestisci eventi con le logiche associate;
:Environment [aggiornato rispetto agli eventi] ]
:esegui le logiche di aggiornamento;
:Environment [aggiornato rispetto agli eventi e alle logiche] ]
:spedisci il nuovo environment ai boundary;
end fork

stop
@enduml

@startuml
skinparam BackgroundColor FFFFFF
skinparam shadowing false
skinparam RoundCorner 7
skinparam ArrowColor 454645
skinparam FontColor 454645
skinparam SequenceLifeLineBorderColor 696969
skinparam SequenceGroupHeaderFontColor 454645
skinparam SequenceGroupFontColor 696969
skinparam SequenceGroupBorderColor 696969
skinparam SequenceGroupBorderThickness 1

skinparam sequenceDivider {
    BorderColor 454645
    BorderThickness 1
    FontColor 454645
}

skinparam participant {
    BackgroundColor FF6347
    BorderColor FF6F61
    FontColor FFFFFF
}

skinparam database {
    BackgroundColor 00FFFF
    BorderColor 454645
    FontColor 454645
}

skinparam entity {
    BackgroundColor FFE552
    BorderColor 454645
    FontColor 454645
}

skinparam note {
    BackgroundColor 7FFFD4
    BorderColor 7FFFD4
    FontColor 454645
}

skinparam actor {
    BackgroundColor 454645
    BorderColor 454645
    FontColor 454645
}

skinparam boundary {
    BackgroundColor FFE552
    BorderColor 454645
    FontColor 454645
}

skinparam control {
    BackgroundColor FFE552
    BorderColor 454645
    FontColor 454645
}

skinparam collections {
    BackgroundColor FF6347
    BorderColor FFFFFF
    FontColor 454645
}

skinparam queue {
    BackgroundColor FF6347
    BorderColor FFF
    FontColor FFF
    BorderThickness 1.5
}

start
:setup engine;
fork
:ottieni eventi dai boundary;
:inserisci gli eventi nella coda dell'engine;
fork again
:prendi maxEventPerIteration eventi dalla coda;
:ottieni environment corrente;
:Environment]
:gestisci eventi con le logiche associate;
:Environment [aggiornato rispetto agli eventi] ]
:esegui le logiche di aggiornamento;
:Environment [aggiornato rispetto agli eventi e alle logiche] ]
:spedisci il nuovo environment ai boundary;
end fork

stop
@enduml

PlantUML version 1.2021.13(Mon Nov 01 12:38:45 CET 2021)
(GPL source distribution)
Java Runtime: OpenJDK Runtime Environment
JVM: OpenJDK 64-Bit Server VM
Default Encoding: UTF-8
Language: en
Country: US
--></g></svg>