<?xml version="1.0" encoding="UTF-8" standalone="no"?><svg xmlns="http://www.w3.org/2000/svg" xmlns:xlink="http://www.w3.org/1999/xlink" contentScriptType="application/ecmascript" contentStyleType="text/css" height="444px" preserveAspectRatio="none" style="width:515px;height:444px;background:#FFFFFF;" version="1.1" viewBox="0 0 515 444" width="515px" zoomAndPan="magnify"><defs/><g><rect fill="#FFFFFF" height="353.4609" style="stroke:#696969;stroke-width:1.0;" width="10" x="30.5" y="46.2969"/><rect fill="#FFFFFF" height="239.0625" style="stroke:#696969;stroke-width:1.0;" width="10" x="269.5" y="67.4297"/><rect fill="#FFFFFF" height="64.2656" style="stroke:#696969;stroke-width:1.0;" width="10" x="387.5" y="96.5625"/><line style="stroke:#696969;stroke-width:1.0;stroke-dasharray:5.0,5.0;" x1="35" x2="35" y1="36.2969" y2="408.7578"/><line style="stroke:#696969;stroke-width:1.0;stroke-dasharray:5.0,5.0;" x1="274.5" x2="274.5" y1="36.2969" y2="408.7578"/><line style="stroke:#696969;stroke-width:1.0;stroke-dasharray:5.0,5.0;" x1="392.5" x2="392.5" y1="36.2969" y2="408.7578"/><rect fill="#FF6347" height="30.2969" rx="3.5" ry="3.5" style="stroke:#FF6F61;stroke-width:1.5;" width="61" x="5" y="5"/><text fill="#FFFFFF" font-family="sans-serif" font-size="14" lengthAdjust="spacing" textLength="47" x="12" y="24.9951">Loader</text><rect fill="#FF6347" height="30.2969" rx="3.5" ry="3.5" style="stroke:#FF6F61;stroke-width:1.5;" width="61" x="5" y="407.7578"/><text fill="#FFFFFF" font-family="sans-serif" font-size="14" lengthAdjust="spacing" textLength="47" x="12" y="427.7529">Loader</text><rect fill="#FF6347" height="30.2969" rx="3.5" ry="3.5" style="stroke:#FF6F61;stroke-width:1.5;" width="58" x="245.5" y="5"/><text fill="#FFFFFF" font-family="sans-serif" font-size="14" lengthAdjust="spacing" textLength="44" x="252.5" y="24.9951">Parser</text><rect fill="#FF6347" height="30.2969" rx="3.5" ry="3.5" style="stroke:#FF6F61;stroke-width:1.5;" width="58" x="245.5" y="407.7578"/><text fill="#FFFFFF" font-family="sans-serif" font-size="14" lengthAdjust="spacing" textLength="44" x="252.5" y="427.7529">Parser</text><rect fill="#FF6347" height="30.2969" rx="3.5" ry="3.5" style="stroke:#FF6F61;stroke-width:1.5;" width="64" x="360.5" y="5"/><text fill="#FFFFFF" font-family="sans-serif" font-size="14" lengthAdjust="spacing" textLength="50" x="367.5" y="24.9951">Reader</text><rect fill="#FF6347" height="30.2969" rx="3.5" ry="3.5" style="stroke:#FF6F61;stroke-width:1.5;" width="64" x="360.5" y="407.7578"/><text fill="#FFFFFF" font-family="sans-serif" font-size="14" lengthAdjust="spacing" textLength="50" x="367.5" y="427.7529">Reader</text><rect fill="#FFFFFF" height="353.4609" style="stroke:#696969;stroke-width:1.0;" width="10" x="30.5" y="46.2969"/><rect fill="#FFFFFF" height="239.0625" style="stroke:#696969;stroke-width:1.0;" width="10" x="269.5" y="67.4297"/><rect fill="#FFFFFF" height="64.2656" style="stroke:#696969;stroke-width:1.0;" width="10" x="387.5" y="96.5625"/><polygon fill="#454645" points="257.5,63.4297,267.5,67.4297,257.5,71.4297,261.5,67.4297" style="stroke:#454645;stroke-width:1.0;"/><line style="stroke:#454645;stroke-width:1.0;" x1="40.5" x2="263.5" y1="67.4297" y2="67.4297"/><text fill="#000000" font-family="sans-serif" font-size="13" lengthAdjust="spacing" textLength="89" x="47.5" y="62.3638">readFile(path)</text><polygon fill="#454645" points="375.5,92.5625,385.5,96.5625,375.5,100.5625,379.5,96.5625" style="stroke:#454645;stroke-width:1.0;"/><line style="stroke:#454645;stroke-width:1.0;" x1="279.5" x2="381.5" y1="96.5625" y2="96.5625"/><text fill="#000000" font-family="sans-serif" font-size="13" lengthAdjust="spacing" textLength="89" x="286.5" y="91.4966">readFile(path)</text><path d="M402,113.0625 L402,131.0625 A3.5,3.5 0 0 0 405.5,134.5625 L504.5,134.5625 A3.5,3.5 0 0 0 508,131.0625 L508,119.5625 L498,109.5625 L405.5,109.5625 A3.5,3.5 0 0 0 402,113.0625 " fill="#7FFFD4" style="stroke:#7FFFD4;stroke-width:1.0;"/><path d="M498,109.5625 L498,117.8125 A1.75,1.75 0 0 0 499.75,119.5625 L508,119.5625 L498,109.5625 " fill="#7FFFD4" style="stroke:#7FFFD4;stroke-width:1.0;"/><text fill="#454645" font-family="sans-serif" font-size="13" lengthAdjust="spacing" textLength="85" x="408" y="126.6294">Configuration</text><polygon fill="#454645" points="290.5,156.8281,280.5,160.8281,290.5,164.8281,286.5,160.8281" style="stroke:#454645;stroke-width:1.0;"/><line style="stroke:#454645;stroke-width:1.0;stroke-dasharray:2.0,2.0;" x1="284.5" x2="391.5" y1="160.8281" y2="160.8281"/><text fill="#000000" font-family="sans-serif" font-size="13" lengthAdjust="spacing" textLength="69" x="296.5" y="155.7622">fileContent</text><polygon fill="#454645" points="51.5,185.9609,41.5,189.9609,51.5,193.9609,47.5,189.9609" style="stroke:#454645;stroke-width:1.0;"/><line style="stroke:#454645;stroke-width:1.0;stroke-dasharray:2.0,2.0;" x1="45.5" x2="268.5" y1="189.9609" y2="189.9609"/><text fill="#000000" font-family="sans-serif" font-size="13" lengthAdjust="spacing" textLength="69" x="57.5" y="184.895">fileContent</text><polygon fill="#454645" points="257.5,215.0938,267.5,219.0938,257.5,223.0938,261.5,219.0938" style="stroke:#454645;stroke-width:1.0;"/><line style="stroke:#454645;stroke-width:1.0;" x1="40.5" x2="263.5" y1="219.0938" y2="219.0938"/><text fill="#000000" font-family="sans-serif" font-size="13" lengthAdjust="spacing" textLength="191" x="47.5" y="214.0278">loadConfiguration(fileContent)</text><polygon fill="#454645" points="51.5,244.2266,41.5,248.2266,51.5,252.2266,47.5,248.2266" style="stroke:#454645;stroke-width:1.0;"/><line style="stroke:#454645;stroke-width:1.0;stroke-dasharray:2.0,2.0;" x1="45.5" x2="268.5" y1="248.2266" y2="248.2266"/><text fill="#000000" font-family="sans-serif" font-size="13" lengthAdjust="spacing" textLength="83" x="57.5" y="243.1606">configuration</text><polygon fill="#454645" points="257.5,273.3594,267.5,277.3594,257.5,281.3594,261.5,277.3594" style="stroke:#454645;stroke-width:1.0;"/><line style="stroke:#454645;stroke-width:1.0;" x1="40.5" x2="263.5" y1="277.3594" y2="277.3594"/><text fill="#000000" font-family="sans-serif" font-size="13" lengthAdjust="spacing" textLength="168" x="47.5" y="272.2935">checkErrors(configuration)</text><polygon fill="#454645" points="51.5,302.4922,41.5,306.4922,51.5,310.4922,47.5,306.4922" style="stroke:#454645;stroke-width:1.0;"/><line style="stroke:#454645;stroke-width:1.0;stroke-dasharray:2.0,2.0;" x1="45.5" x2="273.5" y1="306.4922" y2="306.4922"/><text fill="#000000" font-family="sans-serif" font-size="13" lengthAdjust="spacing" textLength="122" x="57.5" y="301.4263">configurationResult</text><line style="stroke:#454645;stroke-width:1.0;" x1="40.5" x2="82.5" y1="335.625" y2="335.625"/><line style="stroke:#454645;stroke-width:1.0;" x1="82.5" x2="82.5" y1="335.625" y2="348.625"/><line style="stroke:#454645;stroke-width:1.0;" x1="41.5" x2="82.5" y1="348.625" y2="348.625"/><polygon fill="#454645" points="51.5,344.625,41.5,348.625,51.5,352.625,47.5,348.625" style="stroke:#454645;stroke-width:1.0;"/><text fill="#000000" font-family="sans-serif" font-size="13" lengthAdjust="spacing" textLength="215" x="47.5" y="330.5591">createEnvironment(configuration)</text><line style="stroke:#454645;stroke-width:1.0;stroke-dasharray:2.0,2.0;" x1="40.5" x2="82.5" y1="377.7578" y2="377.7578"/><line style="stroke:#454645;stroke-width:1.0;stroke-dasharray:2.0,2.0;" x1="82.5" x2="82.5" y1="377.7578" y2="390.7578"/><line style="stroke:#454645;stroke-width:1.0;stroke-dasharray:2.0,2.0;" x1="41.5" x2="82.5" y1="390.7578" y2="390.7578"/><polygon fill="#454645" points="51.5,386.7578,41.5,390.7578,51.5,394.7578,47.5,390.7578" style="stroke:#454645;stroke-width:1.0;"/><text fill="#000000" font-family="sans-serif" font-size="13" lengthAdjust="spacing" textLength="137" x="47.5" y="372.6919">initalizedEnvironment</text><!--MD5=[c64cf373b75cd4ac3f34f853048a6f59]
@startuml
!theme vibrant

activate Loader
Loader -> Parser: readFile(path)
activate Parser
Parser -> Reader: readFile(path)
activate Reader
note right of Reader: Configuration
Reader - -> Parser: fileContent
deactivate Reader
Parser - -> Loader: fileContent
Loader -> Parser: loadConfiguration(fileContent)
Parser - -> Loader: configuration
Loader -> Parser: checkErrors(configuration)
Parser - -> Loader: configurationResult
deactivate Parser
Loader -> Loader: createEnvironment(configuration)
Loader - -> Loader: initalizedEnvironment
@enduml

@startuml
skinparam BackgroundColor FFFFFF
skinparam shadowing false
skinparam RoundCorner 7
skinparam ArrowColor 454645
skinparam FontColor 454645
skinparam SequenceLifeLineBorderColor 696969
skinparam SequenceGroupHeaderFontColor 454645
skinparam SequenceGroupFontColor 696969
skinparam SequenceGroupBorderColor 696969
skinparam SequenceGroupBorderThickness 1

skinparam sequenceDivider {
    BorderColor 454645
    BorderThickness 1
    FontColor 454645
}

skinparam participant {
    BackgroundColor FF6347
    BorderColor FF6F61
    FontColor FFFFFF
}

skinparam database {
    BackgroundColor 00FFFF
    BorderColor 454645
    FontColor 454645
}

skinparam entity {
    BackgroundColor FFE552
    BorderColor 454645
    FontColor 454645
}

skinparam note {
    BackgroundColor 7FFFD4
    BorderColor 7FFFD4
    FontColor 454645
}

skinparam actor {
    BackgroundColor 454645
    BorderColor 454645
    FontColor 454645
}

skinparam boundary {
    BackgroundColor FFE552
    BorderColor 454645
    FontColor 454645
}

skinparam control {
    BackgroundColor FFE552
    BorderColor 454645
    FontColor 454645
}

skinparam collections {
    BackgroundColor FF6347
    BorderColor FFFFFF
    FontColor 454645
}

skinparam queue {
    BackgroundColor FF6347
    BorderColor FFF
    FontColor FFF
    BorderThickness 1.5
}

activate Loader
Loader -> Parser: readFile(path)
activate Parser
Parser -> Reader: readFile(path)
activate Reader
note right of Reader: Configuration
Reader - -> Parser: fileContent
deactivate Reader
Parser - -> Loader: fileContent
Loader -> Parser: loadConfiguration(fileContent)
Parser - -> Loader: configuration
Loader -> Parser: checkErrors(configuration)
Parser - -> Loader: configurationResult
deactivate Parser
Loader -> Loader: createEnvironment(configuration)
Loader - -> Loader: initalizedEnvironment
@enduml

PlantUML version 1.2021.13(Mon Nov 01 12:38:45 CET 2021)
(GPL source distribution)
Java Runtime: OpenJDK Runtime Environment
JVM: OpenJDK 64-Bit Server VM
Default Encoding: UTF-8
Language: en
Country: GB
--></g></svg>