<?xml version="1.0" encoding="UTF-8" standalone="no"?><svg xmlns="http://www.w3.org/2000/svg" xmlns:xlink="http://www.w3.org/1999/xlink" contentScriptType="application/ecmascript" contentStyleType="text/css" height="460px" preserveAspectRatio="none" style="width:1010px;height:460px;background:#FFFFFF;" version="1.1" viewBox="0 0 1010 460" width="1010px" zoomAndPan="magnify"><defs/><g><!--MD5=[3915787db80ab162e3259f8f86339844]
class Structure--><rect codeLine="3" fill="#FEFECE" height="163.5614" id="Structure" rx="3.5" ry="3.5" style="stroke:#A80036;stroke-width:1.5;" width="408" x="245" y="122.016"/><ellipse cx="420.25" cy="143.3601" fill="#B4A7E5" rx="11" ry="11" style="stroke:#A80036;stroke-width:1.0;"/><path d="M416.2813,149.8601 L416.2813,148.157 L418.6406,147.8914 L418.6406,139.6883 L416.2813,139.4226 L416.2813,137.7195 L423.4219,137.7195 L423.4219,139.4226 L421,139.6883 L421,147.8914 L423.4219,148.157 L423.4219,149.8601 L416.2813,149.8601 Z " fill="#000000"/><text fill="#000000" font-family="sans-serif" font-size="12" font-style="italic" lengthAdjust="spacing" textLength="35" x="447.75" y="139.8441">«trait»</text><text fill="#000000" font-family="sans-serif" font-size="12" font-style="italic" lengthAdjust="spacing" textLength="49" x="440.75" y="156.1882">Structure</text><line style="stroke:#A80036;stroke-width:1.5;" x1="246" x2="652" y1="164.7043" y2="164.7043"/><ellipse cx="256" cy="175.7043" rx="3" ry="3" style="stroke:#038048;stroke-width:1.0;fill:none;"/><text fill="#000000" font-family="sans-serif" font-size="11" lengthAdjust="spacing" textLength="181" x="265" y="180.4632">entranceStrategy: StrategyToEnter</text><line style="stroke:#A80036;stroke-width:1.5;" x1="246" x2="652" y1="187.6861" y2="187.6861"/><ellipse cx="256" cy="198.6861" fill="#84BE84" rx="3" ry="3" style="stroke:#038048;stroke-width:1.0;"/><text fill="#000000" font-family="sans-serif" font-size="11" lengthAdjust="spacing" textLength="374" x="265" y="203.4451">tryToEnter(entity: BaseEntity, timestamp: SimulationTime): BaseStruture</text><ellipse cx="256" cy="213.668" fill="#84BE84" rx="3" ry="3" style="stroke:#038048;stroke-width:1.0;"/><text fill="#000000" font-family="sans-serif" font-size="11" lengthAdjust="spacing" textLength="224" x="265" y="218.4269">entityExit(entity: BaseEntity): BaseStructure</text><polygon fill="#FFFF44" points="256,223.6499,260,227.6499,256,231.6499,252,227.6499" style="stroke:#B38D22;stroke-width:1.0;"/><text fill="#000000" font-family="sans-serif" font-size="11" lengthAdjust="spacing" textLength="202" x="265" y="233.4088">checkEnter(entity: BaseEntity): Boolean</text><polygon fill="#FFFF44" points="256,238.6318,260,242.6318,256,246.6318,252,242.6318" style="stroke:#B38D22;stroke-width:1.0;"/><text fill="#000000" font-family="sans-serif" font-size="11" lengthAdjust="spacing" textLength="351" x="265" y="248.3907">enter(entity: BaseEntity, timestamp: SimulationTime): BaseStructure</text><polygon fill="#FFFF44" points="256,253.6137,260,257.6137,256,261.6137,252,257.6137" style="stroke:#B38D22;stroke-width:1.0;"/><text fill="#000000" font-family="sans-serif" font-size="11" lengthAdjust="spacing" textLength="194" x="265" y="263.3726">exit(entity: BaseEntity): BaseStructure</text><polygon fill="#FFFF44" points="256,268.5956,260,272.5956,256,276.5956,252,272.5956" style="stroke:#B38D22;stroke-width:1.0;"/><text fill="#000000" font-family="sans-serif" font-size="11" lengthAdjust="spacing" textLength="382" x="265" y="278.3545">notEntered(entity: BaseEntity, timestamp: SimulationTime): BaseStructure</text><!--MD5=[35fa7ce99f1adf91ef35d4c75e6a0d1c]
class Visible--><rect codeLine="13" fill="#FEFECE" height="73.6701" id="Visible" rx="3.5" ry="3.5" style="stroke:#A80036;stroke-width:1.5;" width="163" x="208.5" y="372.516"/><ellipse cx="268.75" cy="393.8601" fill="#B4A7E5" rx="11" ry="11" style="stroke:#A80036;stroke-width:1.0;"/><path d="M264.7813,400.3601 L264.7813,398.657 L267.1406,398.3914 L267.1406,390.1883 L264.7813,389.9226 L264.7813,388.2195 L271.9219,388.2195 L271.9219,389.9226 L269.5,390.1883 L269.5,398.3914 L271.9219,398.657 L271.9219,400.3601 L264.7813,400.3601 Z " fill="#000000"/><text fill="#000000" font-family="sans-serif" font-size="12" font-style="italic" lengthAdjust="spacing" textLength="35" x="288.75" y="390.3441">«trait»</text><text fill="#000000" font-family="sans-serif" font-size="12" font-style="italic" lengthAdjust="spacing" textLength="34" x="289.25" y="406.6882">Visible</text><line style="stroke:#A80036;stroke-width:1.5;" x1="209.5" x2="370.5" y1="415.2043" y2="415.2043"/><ellipse cx="219.5" cy="426.2043" rx="3" ry="3" style="stroke:#038048;stroke-width:1.0;fill:none;"/><text fill="#000000" font-family="sans-serif" font-size="11" lengthAdjust="spacing" textLength="137" x="228.5" y="430.9632">visibilityDistance: Distance</text><line style="stroke:#A80036;stroke-width:1.5;" x1="209.5" x2="370.5" y1="438.1861" y2="438.1861"/><!--MD5=[518e01d602177846323f58dd1b2a10b3]
class Closable--><rect codeLine="17" fill="#FEFECE" height="88.652" id="Closable" rx="3.5" ry="3.5" style="stroke:#A80036;stroke-width:1.5;" width="228" x="526" y="365.016"/><ellipse cx="613.25" cy="386.3601" fill="#B4A7E5" rx="11" ry="11" style="stroke:#A80036;stroke-width:1.0;"/><path d="M609.2813,392.8601 L609.2813,391.157 L611.6406,390.8914 L611.6406,382.6883 L609.2813,382.4226 L609.2813,380.7195 L616.4219,380.7195 L616.4219,382.4226 L614,382.6883 L614,390.8914 L616.4219,391.157 L616.4219,392.8601 L609.2813,392.8601 Z " fill="#000000"/><text fill="#000000" font-family="sans-serif" font-size="12" font-style="italic" lengthAdjust="spacing" textLength="35" x="638.75" y="382.8441">«trait»</text><text fill="#000000" font-family="sans-serif" font-size="12" font-style="italic" lengthAdjust="spacing" textLength="45" x="633.75" y="399.1882">Closable</text><line style="stroke:#A80036;stroke-width:1.5;" x1="527" x2="753" y1="407.7043" y2="407.7043"/><line style="stroke:#A80036;stroke-width:1.5;" x1="527" x2="753" y1="415.7043" y2="415.7043"/><ellipse cx="537" cy="426.7043" fill="#84BE84" rx="3" ry="3" style="stroke:#038048;stroke-width:1.0;"/><text fill="#000000" font-family="sans-serif" font-size="11" lengthAdjust="spacing" textLength="92" x="546" y="431.4632">isOpen(): Boolean</text><polygon fill="#FFFF44" points="537,436.6861,541,440.6861,537,444.6861,533,440.6861" style="stroke:#B38D22;stroke-width:1.0;"/><text fill="#000000" font-family="sans-serif" font-size="11" lengthAdjust="spacing" textLength="202" x="546" y="446.4451">checkEnter(entity: BaseEntity): Boolean</text><!--MD5=[5a7ae209f7eb3f799bf48ac076c9e282]
class Groupable--><rect codeLine="22" fill="#FEFECE" height="73.6701" id="Groupable" rx="3.5" ry="3.5" style="stroke:#A80036;stroke-width:1.5;" width="99" x="74.5" y="372.516"/><ellipse cx="94" cy="393.8601" fill="#B4A7E5" rx="11" ry="11" style="stroke:#A80036;stroke-width:1.0;"/><path d="M90.0313,400.3601 L90.0313,398.657 L92.3906,398.3914 L92.3906,390.1883 L90.0313,389.9226 L90.0313,388.2195 L97.1719,388.2195 L97.1719,389.9226 L94.75,390.1883 L94.75,398.3914 L97.1719,398.657 L97.1719,400.3601 L90.0313,400.3601 Z " fill="#000000"/><text fill="#000000" font-family="sans-serif" font-size="12" font-style="italic" lengthAdjust="spacing" textLength="35" x="120" y="390.3441">«trait»</text><text fill="#000000" font-family="sans-serif" font-size="12" font-style="italic" lengthAdjust="spacing" textLength="57" x="109" y="406.6882">Groupable</text><line style="stroke:#A80036;stroke-width:1.5;" x1="75.5" x2="172.5" y1="415.2043" y2="415.2043"/><ellipse cx="85.5" cy="426.2043" rx="3" ry="3" style="stroke:#038048;stroke-width:1.0;fill:none;"/><text fill="#000000" font-family="sans-serif" font-size="11" lengthAdjust="spacing" textLength="73" x="94.5" y="430.9632">group: Group</text><line style="stroke:#A80036;stroke-width:1.5;" x1="75.5" x2="172.5" y1="438.1861" y2="438.1861"/><!--MD5=[466fbfca825f455c120c332b83ee30ec]
class Habitable--><rect codeLine="26" fill="#FEFECE" height="58.6882" id="Habitable" rx="3.5" ry="3.5" style="stroke:#A80036;stroke-width:1.5;" width="84" x="407" y="380.016"/><ellipse cx="422" cy="401.3601" fill="#B4A7E5" rx="11" ry="11" style="stroke:#A80036;stroke-width:1.0;"/><path d="M418.0313,407.8601 L418.0313,406.157 L420.3906,405.8914 L420.3906,397.6883 L418.0313,397.4226 L418.0313,395.7195 L425.1719,395.7195 L425.1719,397.4226 L422.75,397.6883 L422.75,405.8914 L425.1719,406.157 L425.1719,407.8601 L418.0313,407.8601 Z " fill="#000000"/><text fill="#000000" font-family="sans-serif" font-size="12" font-style="italic" lengthAdjust="spacing" textLength="35" x="444.5" y="397.8441">«trait»</text><text fill="#000000" font-family="sans-serif" font-size="12" font-style="italic" lengthAdjust="spacing" textLength="52" x="436" y="414.1882">Habitable</text><line style="stroke:#A80036;stroke-width:1.5;" x1="408" x2="490" y1="422.7043" y2="422.7043"/><line style="stroke:#A80036;stroke-width:1.5;" x1="408" x2="490" y1="430.7043" y2="430.7043"/><!--MD5=[f8131a59b08283107c40872bd1ac1232]
class Hospitalization--><rect codeLine="28" fill="#FEFECE" height="73.6701" id="Hospitalization" rx="3.5" ry="3.5" style="stroke:#A80036;stroke-width:1.5;" width="214" x="789" y="372.516"/><ellipse cx="851.75" cy="393.8601" fill="#B4A7E5" rx="11" ry="11" style="stroke:#A80036;stroke-width:1.0;"/><path d="M847.7813,400.3601 L847.7813,398.657 L850.1406,398.3914 L850.1406,390.1883 L847.7813,389.9226 L847.7813,388.2195 L854.9219,388.2195 L854.9219,389.9226 L852.5,390.1883 L852.5,398.3914 L854.9219,398.657 L854.9219,400.3601 L847.7813,400.3601 Z " fill="#000000"/><text fill="#000000" font-family="sans-serif" font-size="12" font-style="italic" lengthAdjust="spacing" textLength="35" x="894.75" y="390.3441">«trait»</text><text fill="#000000" font-family="sans-serif" font-size="12" font-style="italic" lengthAdjust="spacing" textLength="80" x="872.25" y="406.6882">Hospitalization</text><line style="stroke:#A80036;stroke-width:1.5;" x1="790" x2="1002" y1="415.2043" y2="415.2043"/><ellipse cx="800" cy="426.2043" rx="3" ry="3" style="stroke:#038048;stroke-width:1.0;fill:none;"/><text fill="#000000" font-family="sans-serif" font-size="11" lengthAdjust="spacing" textLength="188" x="809" y="430.9632">treatmentQuality: TreatmentQuality</text><line style="stroke:#A80036;stroke-width:1.5;" x1="790" x2="1002" y1="438.1861" y2="438.1861"/><!--MD5=[d0ae07ba090dd8bf0d7506d953667847]
class TreatmentQuality--><rect codeLine="32" fill="#FEFECE" height="92.9457" id="TreatmentQuality" rx="3.5" ry="3.5" style="stroke:#A80036;stroke-width:1.5;" width="130" x="831" y="157.516"/><ellipse cx="846" cy="173.516" fill="#EB937F" rx="11" ry="11" style="stroke:#A80036;stroke-width:1.0;"/><path d="M842.3594,180.016 L842.3594,167.8754 L850.0156,167.8754 L850.0156,170.0004 L844.7344,170.0004 L844.7344,172.6566 L849.75,172.6566 L849.75,174.7816 L844.7344,174.7816 L844.7344,177.891 L850.0156,177.891 L850.0156,180.016 L842.3594,180.016 Z " fill="#000000"/><text fill="#000000" font-family="sans-serif" font-size="12" lengthAdjust="spacing" textLength="98" x="860" y="178.1721">TreatmentQuality</text><line style="stroke:#A80036;stroke-width:1.5;" x1="832" x2="960" y1="189.516" y2="189.516"/><text fill="#000000" font-family="sans-serif" font-size="11" lengthAdjust="spacing" textLength="34" x="837" y="205.2749">GOOD</text><text fill="#000000" font-family="sans-serif" font-size="11" lengthAdjust="spacing" textLength="46" x="837" y="220.2568">MEDIUM</text><text fill="#000000" font-family="sans-serif" font-size="11" lengthAdjust="spacing" textLength="25" x="837" y="235.2387">LOW</text><line style="stroke:#A80036;stroke-width:1.5;" x1="832" x2="960" y1="242.4617" y2="242.4617"/><rect fill="#FEFECE" height="52.6882" rx="3.5" ry="3.5" style="stroke:#A80036;stroke-width:1.5;" width="58" x="7" y="8.016"/><text fill="#000000" font-family="sans-serif" font-size="12" font-style="italic" lengthAdjust="spacing" textLength="35" x="18.5" y="20.8441">«type»</text><text fill="#000000" font-family="sans-serif" font-size="12" lengthAdjust="spacing" textLength="44" x="14" y="39.1882">Position</text><line style="stroke:#A80036;stroke-width:1.5;" x1="8" x2="64" y1="44.7043" y2="44.7043"/><rect fill="#FEFECE" height="52.6882" rx="3.5" ry="3.5" style="stroke:#A80036;stroke-width:1.5;" width="73" x="100.5" y="8.016"/><text fill="#000000" font-family="sans-serif" font-size="12" font-style="italic" lengthAdjust="spacing" textLength="35" x="119.5" y="20.8441">«type»</text><text fill="#000000" font-family="sans-serif" font-size="12" lengthAdjust="spacing" textLength="59" x="107.5" y="39.1882">Probability</text><line style="stroke:#A80036;stroke-width:1.5;" x1="101.5" x2="172.5" y1="44.7043" y2="44.7043"/><rect fill="#FEFECE" height="52.6882" rx="3.5" ry="3.5" style="stroke:#A80036;stroke-width:1.5;" width="107" x="208.5" y="8.016"/><text fill="#000000" font-family="sans-serif" font-size="12" font-style="italic" lengthAdjust="spacing" textLength="35" x="244.5" y="20.8441">«type»</text><text fill="#000000" font-family="sans-serif" font-size="12" lengthAdjust="spacing" textLength="93" x="215.5" y="39.1882">TimeDistribution</text><line style="stroke:#A80036;stroke-width:1.5;" x1="209.5" x2="314.5" y1="44.7043" y2="44.7043"/><rect fill="#FEFECE" height="52.6882" rx="3.5" ry="3.5" style="stroke:#A80036;stroke-width:1.5;" width="73" x="350.5" y="8.016"/><text fill="#000000" font-family="sans-serif" font-size="12" font-style="italic" lengthAdjust="spacing" textLength="35" x="369.5" y="20.8441">«type»</text><text fill="#000000" font-family="sans-serif" font-size="12" lengthAdjust="spacing" textLength="59" x="357.5" y="39.1882">BaseEntity</text><line style="stroke:#A80036;stroke-width:1.5;" x1="351.5" x2="422.5" y1="44.7043" y2="44.7043"/><rect fill="#FEFECE" height="52.6882" rx="3.5" ry="3.5" style="stroke:#A80036;stroke-width:1.5;" width="105" x="458.5" y="8.016"/><text fill="#000000" font-family="sans-serif" font-size="12" font-style="italic" lengthAdjust="spacing" textLength="35" x="493.5" y="20.8441">«type»</text><text fill="#000000" font-family="sans-serif" font-size="12" lengthAdjust="spacing" textLength="91" x="465.5" y="39.1882">StrategyToEnter</text><line style="stroke:#A80036;stroke-width:1.5;" x1="459.5" x2="562.5" y1="44.7043" y2="44.7043"/><rect fill="#FEFECE" height="52.6882" rx="3.5" ry="3.5" style="stroke:#A80036;stroke-width:1.5;" width="108" x="599" y="8.016"/><text fill="#000000" font-family="sans-serif" font-size="12" font-style="italic" lengthAdjust="spacing" textLength="35" x="635.5" y="20.8441">«type»</text><text fill="#000000" font-family="sans-serif" font-size="12" lengthAdjust="spacing" textLength="94" x="606" y="39.1882">EntityInStructure</text><line style="stroke:#A80036;stroke-width:1.5;" x1="600" x2="706" y1="44.7043" y2="44.7043"/><rect fill="#FEFECE" height="52.6882" rx="3.5" ry="3.5" style="stroke:#A80036;stroke-width:1.5;" width="101" x="742.5" y="8.016"/><text fill="#000000" font-family="sans-serif" font-size="12" font-style="italic" lengthAdjust="spacing" textLength="35" x="775.5" y="20.8441">«type»</text><text fill="#000000" font-family="sans-serif" font-size="12" lengthAdjust="spacing" textLength="87" x="749.5" y="39.1882">SimulationTime</text><line style="stroke:#A80036;stroke-width:1.5;" x1="743.5" x2="842.5" y1="44.7043" y2="44.7043"/><rect fill="#FEFECE" height="52.6882" rx="3.5" ry="3.5" style="stroke:#A80036;stroke-width:1.5;" width="94" x="879" y="8.016"/><text fill="#000000" font-family="sans-serif" font-size="12" font-style="italic" lengthAdjust="spacing" textLength="35" x="908.5" y="20.8441">«type»</text><text fill="#000000" font-family="sans-serif" font-size="12" lengthAdjust="spacing" textLength="80" x="886" y="39.1882">BaseStructure</text><line style="stroke:#A80036;stroke-width:1.5;" x1="880" x2="972" y1="44.7043" y2="44.7043"/><rect fill="#FEFECE" height="52.6882" rx="3.5" ry="3.5" style="stroke:#A80036;stroke-width:1.5;" width="49" x="99.5" y="177.516"/><text fill="#000000" font-family="sans-serif" font-size="12" font-style="italic" lengthAdjust="spacing" textLength="35" x="106.5" y="190.3441">«type»</text><text fill="#000000" font-family="sans-serif" font-size="12" lengthAdjust="spacing" textLength="35" x="106.5" y="208.6882">Group</text><line style="stroke:#A80036;stroke-width:1.5;" x1="100.5" x2="147.5" y1="214.2043" y2="214.2043"/><!--MD5=[6cec6af0d1af4adf73ea6f66511ebb18]
reverse link Structure to Visible--><path codeLine="48" d="M373.24,301.986 C353.62,327.096 333.69,352.596 318.26,372.346 " fill="none" id="Structure-backto-Visible" style="stroke:#454645;stroke-width:1.0;"/><polygon fill="none" points="367.87,297.476,385.7,286.026,378.9,306.096,367.87,297.476" style="stroke:#454645;stroke-width:1.0;"/><!--MD5=[b4c89fac126354f46cefd661efe344a3]
reverse link Structure to Closable--><path codeLine="49" d="M538.8,300.696 C559.9,323.176 581.37,346.056 599.08,364.916 " fill="none" id="Structure-backto-Closable" style="stroke:#454645;stroke-width:1.0;"/><polygon fill="none" points="533.62,305.406,525.04,286.026,543.83,295.826,533.62,305.406" style="stroke:#454645;stroke-width:1.0;"/><!--MD5=[95e8c6c71ed0a5b561fb9eacc3609b7d]
reverse link Structure to Groupable--><path codeLine="51" d="M312.8,288.756 C273.39,313.176 230.39,340.016 191,365.016 C185.38,368.586 179.51,372.346 173.69,376.096 " fill="none" id="Structure-backto-Groupable" style="stroke:#454645;stroke-width:1.0;stroke-dasharray:7.0,7.0;"/><polygon fill="#454645" points="317.09,286.096,307.3307,287.4209,312.8356,288.7229,311.5336,294.2279,317.09,286.096" style="stroke:#454645;stroke-width:1.0;"/><text fill="#000000" font-family="sans-serif" font-size="13" lengthAdjust="spacing" textLength="65" x="270" y="330.913">«self-type»</text><!--MD5=[5dc2722e0edc1485ce20f985d129cb83]
reverse link Structure to Habitable--><path codeLine="52" d="M449,291.116 C449,322.936 449,356.856 449,380.006 " fill="none" id="Structure-backto-Habitable" style="stroke:#454645;stroke-width:1.0;stroke-dasharray:7.0,7.0;"/><polygon fill="#454645" points="449,286.026,445,295.026,449,291.026,453,295.026,449,286.026" style="stroke:#454645;stroke-width:1.0;"/><text fill="#000000" font-family="sans-serif" font-size="13" lengthAdjust="spacing" textLength="65" x="450" y="330.913">«self-type»</text><!--MD5=[5e1556c4d9674169453387331390fb23]
reverse link Structure to Hospitalization--><path codeLine="53" d="M631.59,288.146 C696.14,317.526 765.41,349.066 816.85,372.486 " fill="none" id="Structure-backto-Hospitalization" style="stroke:#454645;stroke-width:1.0;stroke-dasharray:7.0,7.0;"/><polygon fill="#454645" points="626.95,286.026,633.4881,293.3917,631.5018,288.095,636.7985,286.1088,626.95,286.026" style="stroke:#454645;stroke-width:1.0;"/><text fill="#000000" font-family="sans-serif" font-size="13" lengthAdjust="spacing" textLength="65" x="726" y="330.913">«self-type»</text><!--MD5=[d5a996382bf2098e44614066c86afe08]
link TreatmentQuality to Hospitalization--><path codeLine="55" d="M896,250.686 C896,283.026 896,326.356 896,359.436 " fill="none" id="TreatmentQuality-to-Hospitalization" style="stroke:#454645;stroke-width:1.0;"/><polygon fill="#FFFFFF" points="896,372.466,900,366.466,896,360.466,892,366.466,896,372.466" style="stroke:#454645;stroke-width:1.0;"/><!--MD5=[cdd9295439ab1da772fba2b05ea6dec5]
link Position to Structure--><path codeLine="57" d="M65.04,52.016 C70.92,55.146 77.1,58.286 83,61.016 C130.71,83.106 182.9,104.776 232.54,124.276 " fill="none" id="Position-to-Structure" style="stroke:#454645;stroke-width:1.0;"/><polygon fill="#454645" points="244.76,129.056,240.6312,123.1439,233.5859,124.6812,237.7147,130.5933,244.76,129.056" style="stroke:#454645;stroke-width:1.0;"/><!--MD5=[29b2afd7f88ca2a9255aa313bc0e9ee1]
link Probability to Structure--><path codeLine="58" d="M173.71,55.226 C202.19,70.516 243.82,92.866 286.13,115.576 " fill="none" id="Probability-to-Structure" style="stroke:#454645;stroke-width:1.0;"/><polygon fill="#454645" points="297.77,121.826,294.3755,115.4638,287.1972,116.1502,290.5916,122.5124,297.77,121.826" style="stroke:#454645;stroke-width:1.0;"/><!--MD5=[f3c40a577d5caea1f97d9e5d56a1cc94]
link TimeDistribution to Structure--><path codeLine="59" d="M290.81,61.316 C306.71,75.566 327.51,94.196 348.78,113.246 " fill="none" id="TimeDistribution-to-Structure" style="stroke:#454645;stroke-width:1.0;"/><polygon fill="#454645" points="358.57,122.016,356.7678,115.0337,349.6295,114.0118,351.4317,120.9941,358.57,122.016" style="stroke:#454645;stroke-width:1.0;"/><!--MD5=[105ace0eef4001fe6af10ae416d0cffd]
link BaseEntity to Structure--><path codeLine="60" d="M396.55,61.316 C401.49,74.666 407.86,91.866 414.44,109.646 " fill="none" id="BaseEntity-to-Structure" style="stroke:#454645;stroke-width:1.0;"/><polygon fill="#454645" points="419.02,122.016,420.6866,115.0001,414.8514,110.7634,413.1848,117.7792,419.02,122.016" style="stroke:#454645;stroke-width:1.0;"/><!--MD5=[32601efbc11014cf51c988db9983bbe5]
link StrategyToEnter to Structure--><path codeLine="61" d="M501.45,61.316 C496.51,74.666 490.14,91.866 483.56,109.646 " fill="none" id="StrategyToEnter-to-Structure" style="stroke:#454645;stroke-width:1.0;"/><polygon fill="#454645" points="478.98,122.016,484.8152,117.7792,483.1486,110.7634,477.3134,115.0001,478.98,122.016" style="stroke:#454645;stroke-width:1.0;"/><!--MD5=[b0b2a72a2be1ec65b064a60f33ba1f70]
link EntityInStructure to Structure--><path codeLine="62" d="M621.57,61.316 C604.07,75.696 581.12,94.536 557.7,113.766 " fill="none" id="EntityInStructure-to-Structure" style="stroke:#454645;stroke-width:1.0;"/><polygon fill="#454645" points="547.65,122.016,554.825,121.2952,556.9192,114.3949,549.7443,115.1157,547.65,122.016" style="stroke:#454645;stroke-width:1.0;"/><!--MD5=[ad8124ff644ba709df8ec5c1ec1fc374]
link SimulationTime to Structure--><path codeLine="63" d="M742.24,60.236 C711.24,75.326 669.53,95.636 627.32,116.186 " fill="none" id="SimulationTime-to-Structure" style="stroke:#454645;stroke-width:1.0;"/><polygon fill="#454645" points="615.41,121.986,622.5553,122.9578,626.2005,116.7359,619.0552,115.7641,615.41,121.986" style="stroke:#454645;stroke-width:1.0;"/><!--MD5=[d57fe5aa98a2cbf04b4db00dd591eea7]
link BaseStructure to Structure--><path codeLine="64" d="M878.87,54.276 C872.87,56.586 866.8,58.876 861,61.016 C797.85,84.276 728.85,108.506 665.69,130.236 " fill="none" id="BaseStructure-to-Structure" style="stroke:#454645;stroke-width:1.0;"/><polygon fill="#454645" points="653.13,134.556,660.1045,136.3881,664.4781,130.6547,657.5036,128.8227,653.13,134.556" style="stroke:#454645;stroke-width:1.0;"/><!--MD5=[8334aeb229e7b084e90d420e409cc8bf]
link Group to Groupable--><path codeLine="66" d="M124,230.786 C124,262.976 124,318.736 124,359.236 " fill="none" id="Group-to-Groupable" style="stroke:#454645;stroke-width:1.0;"/><polygon fill="#454645" points="124,372.326,128,366.326,124,360.326,120,366.326,124,372.326" style="stroke:#454645;stroke-width:1.0;"/><!--MD5=[bf68cd2ca844d0fe1650659d8098c86b]
@startuml
!theme vibrant

interface Structure <<trait>> {
+ entranceStrategy: StrategyToEnter
+ tryToEnter(entity: BaseEntity, timestamp: SimulationTime): BaseStruture
+ entityExit(entity: BaseEntity): BaseStructure
# checkEnter(entity: BaseEntity): Boolean
# enter(entity: BaseEntity, timestamp: SimulationTime): BaseStructure
# exit(entity: BaseEntity): BaseStructure
# notEntered(entity: BaseEntity, timestamp: SimulationTime): BaseStructure
}

interface Visible <<trait>> {
+ visibilityDistance: Distance
}

interface Closable <<trait>> {
+ isOpen(): Boolean
# checkEnter(entity: BaseEntity): Boolean
}

interface Groupable <<trait>> {
+ group: Group
}

interface Habitable <<trait>>

interface Hospitalization <<trait>> {
+ treatmentQuality: TreatmentQuality
}

enum TreatmentQuality {
GOOD
MEDIUM
LOW
}

object Position <<type>>
object Probability <<type>>
object TimeDistribution <<type>>
object BaseEntity <<type>>
object StrategyToEnter <<type>>
object EntityInStructure <<type>>
object SimulationTime <<type>>
object BaseStructure <<type>>
object Group <<type>>

Structure <|- - Visible
Structure <|- - Closable

Structure <.. Groupable: <<self-type>>
Structure <.. Habitable: <<self-type>>
Structure <.. Hospitalization: <<self-type>>

TreatmentQuality - -o Hospitalization

Position - -* Structure
Probability - -* Structure
TimeDistribution - -* Structure
BaseEntity - -* Structure
StrategyToEnter - -* Structure
EntityInStructure - -* Structure
SimulationTime - -* Structure
BaseStructure - -* Structure

Group - -* Groupable
@enduml

@startuml
skinparam BackgroundColor FFFFFF
skinparam shadowing false
skinparam RoundCorner 7
skinparam ArrowColor 454645
skinparam FontColor 454645
skinparam SequenceLifeLineBorderColor 696969
skinparam SequenceGroupHeaderFontColor 454645
skinparam SequenceGroupFontColor 696969
skinparam SequenceGroupBorderColor 696969
skinparam SequenceGroupBorderThickness 1

skinparam sequenceDivider {
    BorderColor 454645
    BorderThickness 1
    FontColor 454645
}

skinparam participant {
    BackgroundColor FF6347
    BorderColor FF6F61
    FontColor FFFFFF
}

skinparam database {
    BackgroundColor 00FFFF
    BorderColor 454645
    FontColor 454645
}

skinparam entity {
    BackgroundColor FFE552
    BorderColor 454645
    FontColor 454645
}

skinparam note {
    BackgroundColor 7FFFD4
    BorderColor 7FFFD4
    FontColor 454645
}

skinparam actor {
    BackgroundColor 454645
    BorderColor 454645
    FontColor 454645
}

skinparam boundary {
    BackgroundColor FFE552
    BorderColor 454645
    FontColor 454645
}

skinparam control {
    BackgroundColor FFE552
    BorderColor 454645
    FontColor 454645
}

skinparam collections {
    BackgroundColor FF6347
    BorderColor FFFFFF
    FontColor 454645
}

skinparam queue {
    BackgroundColor FF6347
    BorderColor FFF
    FontColor FFF
    BorderThickness 1.5
}

interface Structure <<trait>> {
+ entranceStrategy: StrategyToEnter
+ tryToEnter(entity: BaseEntity, timestamp: SimulationTime): BaseStruture
+ entityExit(entity: BaseEntity): BaseStructure
# checkEnter(entity: BaseEntity): Boolean
# enter(entity: BaseEntity, timestamp: SimulationTime): BaseStructure
# exit(entity: BaseEntity): BaseStructure
# notEntered(entity: BaseEntity, timestamp: SimulationTime): BaseStructure
}

interface Visible <<trait>> {
+ visibilityDistance: Distance
}

interface Closable <<trait>> {
+ isOpen(): Boolean
# checkEnter(entity: BaseEntity): Boolean
}

interface Groupable <<trait>> {
+ group: Group
}

interface Habitable <<trait>>

interface Hospitalization <<trait>> {
+ treatmentQuality: TreatmentQuality
}

enum TreatmentQuality {
GOOD
MEDIUM
LOW
}

object Position <<type>>
object Probability <<type>>
object TimeDistribution <<type>>
object BaseEntity <<type>>
object StrategyToEnter <<type>>
object EntityInStructure <<type>>
object SimulationTime <<type>>
object BaseStructure <<type>>
object Group <<type>>

Structure <|- - Visible
Structure <|- - Closable

Structure <.. Groupable: <<self-type>>
Structure <.. Habitable: <<self-type>>
Structure <.. Hospitalization: <<self-type>>

TreatmentQuality - -o Hospitalization

Position - -* Structure
Probability - -* Structure
TimeDistribution - -* Structure
BaseEntity - -* Structure
StrategyToEnter - -* Structure
EntityInStructure - -* Structure
SimulationTime - -* Structure
BaseStructure - -* Structure

Group - -* Groupable
@enduml

PlantUML version 1.2021.13(Mon Nov 01 12:38:45 CET 2021)
(GPL source distribution)
Java Runtime: OpenJDK Runtime Environment
JVM: OpenJDK 64-Bit Server VM
Default Encoding: UTF-8
Language: en
Country: US
--></g></svg>