<?xml version="1.0" encoding="UTF-8" standalone="no"?><svg xmlns="http://www.w3.org/2000/svg" xmlns:xlink="http://www.w3.org/1999/xlink" contentScriptType="application/ecmascript" contentStyleType="text/css" height="900px" preserveAspectRatio="none" style="width:816px;height:900px;background:#FFFFFF;" version="1.1" viewBox="0 0 816 900" width="816px" zoomAndPan="magnify"><defs/><g><!--MD5=[2d7a3c04fe4d817c6eda23267c477f08]
cluster VirusSpreadSimulator--><path d="M147.5,6 L294.5,6 A5.25,5.25 0 0 1 298,9.5 L305,28.0986 L805.5,28.0986 A3.5,3.5 0 0 1 809,31.5986 L809,729.5 A3.5,3.5 0 0 1 805.5,733 L147.5,733 A3.5,3.5 0 0 1 144,729.5 L144,9.5 A3.5,3.5 0 0 1 147.5,6 " fill="#FFFFFF" style="stroke:#000000;stroke-width:1.5;"/><line style="stroke:#000000;stroke-width:1.5;" x1="144" x2="305" y1="28.0986" y2="28.0986"/><text fill="#000000" font-family="sans-serif" font-size="14" font-weight="bold" lengthAdjust="spacing" textLength="148" x="148" y="21.1318">VirusSpreadSimulator</text><ellipse cx="302.8443" cy="62.7689" fill="#FEFECE" rx="94.3443" ry="21.2689" style="stroke:#A80036;stroke-width:1.5;"/><text fill="#000000" font-family="sans-serif" font-size="14" lengthAdjust="spacing" textLength="152" x="226.8443" y="65.8514">Richiesta di simulazione</text><ellipse cx="302.7934" cy="268.8587" fill="#FEFECE" rx="94.7934" ry="21.3587" style="stroke:#A80036;stroke-width:1.5;"/><text fill="#000000" font-family="sans-serif" font-size="14" lengthAdjust="spacing" textLength="153" x="226.2934" y="271.9412">Configurazione del virus</text><ellipse cx="302.9051" cy="349.781" fill="#FEFECE" rx="109.4051" ry="24.281" style="stroke:#A80036;stroke-width:1.5;"/><text fill="#000000" font-family="sans-serif" font-size="14" lengthAdjust="spacing" textLength="185" x="210.4051" y="352.8635">Configurazione degli individui</text><ellipse cx="302.9135" cy="165.9827" fill="#FEFECE" rx="142.9135" ry="30.9827" style="stroke:#A80036;stroke-width:1.5;"/><text fill="#000000" font-family="sans-serif" font-size="14" lengthAdjust="spacing" textLength="256" x="174.9135" y="169.0652">Configurazione iniziale della simulazione</text><ellipse cx="302.9992" cy="440.0998" fill="#FEFECE" rx="140.9992" ry="30.5998" style="stroke:#A80036;stroke-width:1.5;"/><text fill="#000000" font-family="sans-serif" font-size="14" lengthAdjust="spacing" textLength="252" x="176.9992" y="443.1824">Configurazione caratteristiche ambiente</text><ellipse cx="303.0159" cy="530.8032" fill="#FEFECE" rx="114.5159" ry="25.3032" style="stroke:#A80036;stroke-width:1.5;"/><text fill="#000000" font-family="sans-serif" font-size="14" lengthAdjust="spacing" textLength="196" x="205.0159" y="533.8857">Monitoraggio della simulazione</text><ellipse cx="303.153" cy="616.9306" fill="#FEFECE" rx="112.653" ry="24.9306" style="stroke:#A80036;stroke-width:1.5;"/><text fill="#000000" font-family="sans-serif" font-size="14" lengthAdjust="spacing" textLength="192" x="207.153" y="620.0131">Interazione con la simulazione</text><ellipse cx="650.2287" cy="503.2457" fill="#FEFECE" rx="126.7287" ry="27.7457" style="stroke:#A80036;stroke-width:1.5;"/><text fill="#000000" font-family="sans-serif" font-size="14" lengthAdjust="spacing" textLength="222" x="539.2287" y="506.3283">Gestione velocità della simulazione</text><ellipse cx="649.9135" cy="596.9827" fill="#FEFECE" rx="142.9135" ry="30.9827" style="stroke:#A80036;stroke-width:1.5;"/><text fill="#000000" font-family="sans-serif" font-size="14" lengthAdjust="spacing" textLength="256" x="521.9135" y="600.0652">Inserimento dinamico vincoli e parametri</text><ellipse cx="649.8958" cy="690.1792" fill="#FEFECE" rx="123.8958" ry="27.1792" style="stroke:#A80036;stroke-width:1.5;"/><text fill="#000000" font-family="sans-serif" font-size="14" lengthAdjust="spacing" textLength="216" x="541.8958" y="693.2617">Stop, Pausa e ripresa simulazione</text><ellipse cx="302.9219" cy="697.0844" fill="#FEFECE" rx="85.9219" ry="19.5844" style="stroke:#A80036;stroke-width:1.5;"/><text fill="#000000" font-family="sans-serif" font-size="14" lengthAdjust="spacing" textLength="133" x="236.4219" y="700.1669">Esportazione dei dati</text><!--MD5=[fee662a292a0353a69bd162820bae93b]
entity User--><ellipse cx="21" cy="501.5" fill="#454645" rx="8" ry="8" style="stroke:#454645;stroke-width:1.5;"/><path d="M21,509.5 L21,536.5 M8,517.5 L34,517.5 M21,536.5 L8,551.5 M21,536.5 L34,551.5 " fill="none" style="stroke:#454645;stroke-width:1.5;"/><text fill="#454645" font-family="sans-serif" font-size="14" lengthAdjust="spacing" textLength="30" x="6" y="567.1318">User</text><!--MD5=[3e2f0be034efe9e9eab40936dbefed54]
link RIC_SIM to CONF_SIM--><path d="M303,84.61 C303,97.69 303,114.7 303,129.78 " fill="none" id="RIC_SIM-to-CONF_SIM" style="stroke:#454645;stroke-width:1.0;stroke-dasharray:7.0,7.0;"/><polygon fill="#454645" points="303,134.82,307,125.82,303,129.82,299,125.82,303,134.82" style="stroke:#454645;stroke-width:1.0;"/><text fill="#000000" font-family="sans-serif" font-size="13" lengthAdjust="spacing" textLength="55" x="264.5" y="114.9438">«include»</text><!--MD5=[7bc37aa2b50fef78cf755a63f9fd96d2]
reverse link CONF_SIM to CONF_VIR--><path d="M303,202.2 C303,217.2 303,234.11 303,247.16 " fill="none" id="CONF_SIM-backto-CONF_VIR" style="stroke:#454645;stroke-width:1.0;stroke-dasharray:7.0,7.0;"/><polygon fill="#454645" points="303,197.19,299,206.19,303,202.19,307,206.19,303,197.19" style="stroke:#454645;stroke-width:1.0;"/><text fill="#000000" font-family="sans-serif" font-size="13" lengthAdjust="spacing" textLength="60" x="262" y="227.4438">«extends»</text><!--MD5=[77c9ee0f870fbd1ffe654d1929940625]
reverse link CONF_SIM to CONF_IND--><path d="M200.89,190.76 C177.5,200.11 154.2,212.82 136,230 C80.72,282.19 83.28,292.56 104,317 C127.33,344.51 164.1,355.23 199.72,358.21 " fill="none" id="CONF_SIM-backto-CONF_IND" style="stroke:#454645;stroke-width:1.0;stroke-dasharray:7.0,7.0;"/><polygon fill="#454645" points="205.56,188.94,195.7219,188.4798,200.9011,190.755,198.6259,195.9341,205.56,188.94" style="stroke:#454645;stroke-width:1.0;"/><text fill="#000000" font-family="sans-serif" font-size="13" lengthAdjust="spacing" textLength="60" x="67" y="314.1938">«extends»</text><!--MD5=[a7ce2b04a6b7d3e416e841284a7de0c2]
link CONF_ENV to CONF_SIM--><path d="M175.9,426.66 C146.65,416.86 119.57,400.63 104,374 C92.64,354.57 64.49,310.73 136,230 C151.95,211.99 173.55,199.02 195.91,189.69 " fill="none" id="CONF_ENV-to-CONF_SIM" style="stroke:#454645;stroke-width:1.0;stroke-dasharray:7.0,7.0;"/><polygon fill="#454645" points="200.69,187.75,190.8468,187.4152,196.0546,189.6242,193.8456,194.8319,200.69,187.75" style="stroke:#454645;stroke-width:1.0;"/><text fill="#000000" font-family="sans-serif" font-size="13" lengthAdjust="spacing" textLength="60" x="67" y="371.1938">«extends»</text><!--MD5=[458ea200a2ee2cde4e0ede061f30a551]
reverse link INT_SIM to SPEED--><path d="M393.02,591.67 C410.69,586.18 429.02,580.17 446,574 C473.7,563.94 479.37,558.24 507,548 C528.7,539.96 552.59,532.04 574.47,525.14 " fill="none" id="INT_SIM-backto-SPEED" style="stroke:#454645;stroke-width:1.0;"/><polygon fill="none" points="395.01,598.38,373.83,597.5,390.93,584.99,395.01,598.38" style="stroke:#454645;stroke-width:1.0;"/><!--MD5=[1cf500e9e346b47f8fa5349252234621]
reverse link INT_SIM to SPR--><path d="M405.07,638.39 C454.28,648.8 512.91,661.21 560.36,671.25 " fill="none" id="INT_SIM-backto-SPR" style="stroke:#454645;stroke-width:1.0;"/><polygon fill="none" points="403.44,645.2,385.32,634.21,406.34,631.5,403.44,645.2" style="stroke:#454645;stroke-width:1.0;"/><!--MD5=[ee966555f1c13d53d121ba0af9473fc6]
reverse link INT_SIM to INS_VINC--><path d="M432.56,609.55 C458.36,608.05 485.57,606.48 511.65,604.96 " fill="none" id="INT_SIM-backto-INS_VINC" style="stroke:#454645;stroke-width:1.0;"/><polygon fill="none" points="432.59,616.56,412.21,610.73,431.77,602.58,432.59,616.56" style="stroke:#454645;stroke-width:1.0;"/><!--MD5=[cb729230aaac748c08e433470812ead4]
link User to RIC_SIM--><path d="M24.7,492 C30.3,417.28 44.47,256.86 66,206 C85.62,159.66 94.73,145.81 136,117 C162.19,98.72 194.96,86.34 224.44,78.09 " fill="none" id="User-to-RIC_SIM" style="stroke:#454645;stroke-width:1.0;"/><polygon fill="#454645" points="229.52,76.71,219.7843,75.2214,224.6965,78.0268,221.8912,82.939,229.52,76.71" style="stroke:#454645;stroke-width:1.0;"/><!--MD5=[9d5f4511215b64f5f172f1566ec78ebc]
link User to CONF_VIR--><path d="M23.85,491.87 C27.55,432.04 38.05,322.03 66,296 C106.7,258.1 170.02,252.64 220.83,255.96 " fill="none" id="User-to-CONF_VIR" style="stroke:#454645;stroke-width:1.0;"/><polygon fill="#454645" points="226.02,256.33,217.3288,251.6972,221.0328,255.9727,216.7572,259.6767,226.02,256.33" style="stroke:#454645;stroke-width:1.0;"/><!--MD5=[6243fb2cdfb18161d16feee00c079f42]
link User to CONF_IND--><path d="M36.06,504.57 C54.54,472.56 90.1,419.54 136,392 C156.94,379.44 181.54,370.61 205.29,364.42 " fill="none" id="User-to-CONF_IND" style="stroke:#454645;stroke-width:1.0;"/><polygon fill="#454645" points="210.34,363.14,200.6327,361.4759,205.4935,364.3695,202.5999,369.2303,210.34,363.14" style="stroke:#454645;stroke-width:1.0;"/><!--MD5=[54169e78873a42b62ee58ad266b9389d]
link User to CONF_SIM--><path d="M23.45,491.87 C26.71,424.33 36.79,289.71 66,254 C94.59,219.05 138.52,197.98 180.76,185.27 " fill="none" id="User-to-CONF_SIM" style="stroke:#454645;stroke-width:1.0;"/><polygon fill="#454645" points="185.64,183.84,175.88,182.52,180.84,185.24,178.12,190.2,185.64,183.84" style="stroke:#454645;stroke-width:1.0;"/><!--MD5=[278571e8ff1877fea0cb6f46efb6ec6b]
link User to CONF_ENV--><path d="M36.16,521.33 C44.54,515.94 55.54,509.44 66,505 C107.54,487.38 155.22,473.19 196.81,462.62 " fill="none" id="User-to-CONF_ENV" style="stroke:#454645;stroke-width:1.0;"/><polygon fill="#454645" points="201.85,461.35,192.1427,459.6859,197.0035,462.5795,194.1099,467.4403,201.85,461.35" style="stroke:#454645;stroke-width:1.0;"/><!--MD5=[223b532287d56fdd459b134f1ee9ce6e]
link User to SIM_MONIT--><path d="M36.27,531 C63.64,531 125.89,531 183.26,531 " fill="none" id="User-to-SIM_MONIT" style="stroke:#454645;stroke-width:1.0;"/><polygon fill="#454645" points="188.44,531,179.44,527,183.44,531,179.44,535,188.44,531" style="stroke:#454645;stroke-width:1.0;"/><!--MD5=[fc10fb61e734b5e210b4257952630c8a]
link User to INT_SIM--><path d="M36.22,536.93 C57.63,545.72 99.5,562.43 136,574 C163.12,582.6 193.12,590.77 220.07,597.63 " fill="none" id="User-to-INT_SIM" style="stroke:#454645;stroke-width:1.0;"/><polygon fill="#454645" points="225.07,598.9,217.3299,592.8097,220.2235,597.6705,215.3627,600.5641,225.07,598.9" style="stroke:#454645;stroke-width:1.0;"/><!--MD5=[2af478a0aec35a5ec574c9a24a42b271]
link User to SPEED--><path d="M29.4,570.27 C41.45,620.95 70.85,705.95 136,734 C262.55,788.49 334.42,814.83 446,734 C516.45,682.96 445.18,609.21 507,548 C518.15,536.97 531.98,528.64 546.6,522.35 " fill="none" id="User-to-SPEED" style="stroke:#454645;stroke-width:1.0;"/><polygon fill="#454645" points="551.59,520.29,541.7449,520.018,546.9666,522.1937,544.7909,527.4155,551.59,520.29" style="stroke:#454645;stroke-width:1.0;"/><!--MD5=[e9d1264c70b2b2ba93b523e1627102ab]
link User to INS_VINC--><path d="M22.6,570.12 C24.93,614.04 33.88,685.94 66,738 C86.92,771.91 98.4,780.81 136,794 C266.01,839.61 331.6,870.78 446,794 C505.42,754.12 454.84,693.99 507,645 C517.57,635.08 530.26,627.2 543.65,620.95 " fill="none" id="User-to-INS_VINC" style="stroke:#454645;stroke-width:1.0;"/><polygon fill="#454645" points="548.21,618.89,538.3612,618.9215,543.6475,620.9353,541.6336,626.2215,548.21,618.89" style="stroke:#454645;stroke-width:1.0;"/><!--MD5=[242976367083385243f59dcb6167f076]
link User to ESP--><path d="M36.04,554.12 C54.99,583.27 91.56,632.72 136,659 C160.91,673.74 191.05,682.76 218.77,688.28 " fill="none" id="User-to-ESP" style="stroke:#454645;stroke-width:1.0;"/><polygon fill="#454645" points="223.92,689.28,215.8349,683.6558,219.0096,688.3379,214.3275,691.5125,223.92,689.28" style="stroke:#454645;stroke-width:1.0;"/><!--MD5=[d3d65236950a1dfce38c33b9ccf82f54]
link User to SPR--><path d="M24.75,570.24 C29.9,635.15 42.65,761.47 66,799 C86.2,831.46 99.59,837.33 136,849 C267.21,891.05 315.76,893.94 446,849 C519.5,823.64 586.7,759.51 622.32,720.89 " fill="none" id="User-to-SPR" style="stroke:#454645;stroke-width:1.0;"/><polygon fill="#454645" points="626.09,716.77,617.0716,720.7284,622.7224,720.4658,622.9849,726.1166,626.09,716.77" style="stroke:#454645;stroke-width:1.0;"/><!--MD5=[5eef7aa1576df721032932ec2b2bbf16]
@startuml
!theme vibrant
left to right direction

actor User

package VirusSpreadSimulator {

(Richiesta di simulazione) as RIC_SIM
(Configurazione del virus) as CONF_VIR
(Configurazione degli individui) as CONF_IND
(Configurazione iniziale della simulazione) as CONF_SIM
(Configurazione caratteristiche ambiente) as CONF_ENV
(Monitoraggio della simulazione) as SIM_MONIT
(Interazione con la simulazione) as INT_SIM
(Gestione velocità della simulazione) as SPEED
(Inserimento dinamico vincoli e parametri) as INS_VINC
(Stop, Pausa e ripresa simulazione) as SPR
(Esportazione dei dati) as ESP

}

RIC_SIM .> CONF_SIM : <<include>>
CONF_SIM <. CONF_VIR : <<extends>>
CONF_SIM <. CONF_IND : <<extends>>
CONF_ENV .> CONF_SIM : <<extends>>

INT_SIM <|- - SPEED
INT_SIM <|- - SPR
INT_SIM <|- - INS_VINC


User - -> RIC_SIM
User - -> CONF_VIR
User - -> CONF_IND
User - -> CONF_SIM
User - -> CONF_ENV
User - -> SIM_MONIT
User - -> INT_SIM
User - -> SPEED
User - -> INS_VINC
User - -> ESP
User - -> SPR

@enduml

@startuml
skinparam BackgroundColor FFFFFF
skinparam shadowing false
skinparam RoundCorner 7
skinparam ArrowColor 454645
skinparam FontColor 454645
skinparam SequenceLifeLineBorderColor 696969
skinparam SequenceGroupHeaderFontColor 454645
skinparam SequenceGroupFontColor 696969
skinparam SequenceGroupBorderColor 696969
skinparam SequenceGroupBorderThickness 1

skinparam sequenceDivider {
    BorderColor 454645
    BorderThickness 1
    FontColor 454645
}

skinparam participant {
    BackgroundColor FF6347
    BorderColor FF6F61
    FontColor FFFFFF
}

skinparam database {
    BackgroundColor 00FFFF
    BorderColor 454645
    FontColor 454645
}

skinparam entity {
    BackgroundColor FFE552
    BorderColor 454645
    FontColor 454645
}

skinparam note {
    BackgroundColor 7FFFD4
    BorderColor 7FFFD4
    FontColor 454645
}

skinparam actor {
    BackgroundColor 454645
    BorderColor 454645
    FontColor 454645
}

skinparam boundary {
    BackgroundColor FFE552
    BorderColor 454645
    FontColor 454645
}

skinparam control {
    BackgroundColor FFE552
    BorderColor 454645
    FontColor 454645
}

skinparam collections {
    BackgroundColor FF6347
    BorderColor FFFFFF
    FontColor 454645
}

skinparam queue {
    BackgroundColor FF6347
    BorderColor FFF
    FontColor FFF
    BorderThickness 1.5
}
left to right direction

actor User

package VirusSpreadSimulator {

(Richiesta di simulazione) as RIC_SIM
(Configurazione del virus) as CONF_VIR
(Configurazione degli individui) as CONF_IND
(Configurazione iniziale della simulazione) as CONF_SIM
(Configurazione caratteristiche ambiente) as CONF_ENV
(Monitoraggio della simulazione) as SIM_MONIT
(Interazione con la simulazione) as INT_SIM
(Gestione velocità della simulazione) as SPEED
(Inserimento dinamico vincoli e parametri) as INS_VINC
(Stop, Pausa e ripresa simulazione) as SPR
(Esportazione dei dati) as ESP

}

RIC_SIM .> CONF_SIM : <<include>>
CONF_SIM <. CONF_VIR : <<extends>>
CONF_SIM <. CONF_IND : <<extends>>
CONF_ENV .> CONF_SIM : <<extends>>

INT_SIM <|- - SPEED
INT_SIM <|- - SPR
INT_SIM <|- - INS_VINC


User - -> RIC_SIM
User - -> CONF_VIR
User - -> CONF_IND
User - -> CONF_SIM
User - -> CONF_ENV
User - -> SIM_MONIT
User - -> INT_SIM
User - -> SPEED
User - -> INS_VINC
User - -> ESP
User - -> SPR

@enduml

PlantUML version 1.2021.13(Mon Nov 01 12:38:45 CET 2021)
(GPL source distribution)
Java Runtime: OpenJDK Runtime Environment
JVM: OpenJDK 64-Bit Server VM
Default Encoding: UTF-8
Language: en
Country: US
--></g></svg>